<?xml version="1.0" encoding="utf-8"?>
<!-- Generator: Adobe Illustrator 16.0.0, SVG Export Plug-In . SVG Version: 6.00 Build 0)  -->
<!DOCTYPE svg PUBLIC "-//W3C//DTD SVG 1.1//EN" "http://www.w3.org/Graphics/SVG/1.1/DTD/svg11.dtd">
<svg version="1.1" id="Layer_1" xmlns="http://www.w3.org/2000/svg" xmlns:xlink="http://www.w3.org/1999/xlink" x="0px" y="0px"
	 width="737.008px" height="787.156px" viewBox="0 0 737.008 787.156" enable-background="new 0 0 737.008 787.156"
	 xml:space="preserve">
<g>
	<g>
		<g>
			<path fill="#003399" d="M423.127,64.26h-18.94c-1.099,0-2-0.9-2-2c0-1.101,0.901-1.999,2-1.999h7.946
				c1.649,0,2.998-1.299,2.998-2.948v-9.045c0-1.649-1.349-2.948-2.998-2.948l-6.948-0.05c-1.647,0-2.998-1.301-2.998-2.95V27.377
				c0-1.65,1.351-2.949,2.998-2.949h15.144c1.099,0,2,0.85,2,1.949s-0.901,2-2,2h-11.195c-1.649,0-2.998,1.349-2.998,2.998v6.947
				c0,1.649,1.349,2.998,2.998,2.998l13.994,0.001c1.651,0,2.949,1.349,2.949,2.998v16.942
				C426.076,62.911,424.778,64.26,423.127,64.26z"/>
			<path fill="#003399" d="M457.962,64.26h-9.495c-1.647,0-2.998-1.349-2.998-2.998v-4.999c0-1.65,1.349-2.999,2.998-2.999h5.95
				c0.798,0,1.497-0.65,1.497-1.501c0-0.199-0.049-0.448-0.148-0.649c-3.2-4.746-3.249-4.847-3.249-4.847
				c-0.4-0.6-1-0.999-1.749-0.999l-11.796,0c-1.1,0-1.998,0.899-1.998,1.998v2.999c0,1.649,1.35,2.998,2.998,2.998
				c0,0,2.998,1.349,2.998,2.999v4.999c0,1.649-1.349,2.998-2.998,2.998h-3.999c-1.648,0-2.998-1.349-2.998-2.998V27.277
				c0-1.65,1.35-2.999,3-2.999h5.297c1.05,0,1.948,0.499,2.448,1.299c0,0,0.15,0.199,16.844,25.588
				c0.248,0.7,0.399,1.449,0.399,2.248v7.847C460.963,62.911,459.611,64.26,457.962,64.26z M447.867,39.071l-6.496-9.846
				c-0.349-0.55-0.95-0.9-1.648-0.9h-0.75c-1.101,0-1.999,0.9-1.999,2v7.946c0,1.649,1.299,2.998,2.998,2.998h6.547
				c0.8,0,1.499-0.7,1.5-1.498C448.018,39.52,447.967,39.271,447.867,39.071z"/>
			<path fill="#003399" d="M491.748,64.26c0,0-1.997-0.9-1.997-2V48.317c0-1.65-1.3-2.999-2.948-2.999h-5.997
				c-1.65,0-2.999,1.349-3.001,2.999v12.943c0.002,1.65-1.298,2.999-2.948,2.999h-3.996c-1.649,0-3-1.349-2.998-2.999V27.427
				c-0.002-1.65,1.349-2.999,2.998-2.999h14.941c1.65,0,2.948,1.349,2.948,2.999v10.694c0,0.801,0.352,1.55,0.901,2.1l3.197,3.248
				c0.551,0.549,0.9,1.3,0.9,2.099v16.691C493.749,63.359,492.849,64.26,491.748,64.26z M484.802,31.375
				c0-1.649-1.349-2.948-2.998-2.948h-6.947c-1.646,0-2.998,1.299-2.998,2.948v6.997c0,1.648,1.352,2.998,2.998,2.998h6.947
				c1.649,0,2.998-1.35,2.998-2.998V31.375z"/>
			<path fill="#003399" d="M522.389,64.26h-18.993c-1.647,0-2.998-1.349-2.998-2.999V27.277c0-1.65,1.351-2.999,2.998-2.999h18.993
				c1.099,0,1.997,0.899,1.997,1.999v6.996c0,1.1-0.898,1.999-1.997,1.999h-14.995c-1.649,0-2.998,1.351-2.998,2.999v18.992
				c0,1.649,1.349,2.998,2.998,2.998h9.996c1.649-0.05,2.998-1.349,2.998-2.998v-2.049c0-1.649-1.349-2.998-2.998-2.998h-5.098
				c-1.099,0-1.999-0.9-1.999-2v-6.997c0-1.099,0.9-1.998,1.999-1.998h9.096c1.648,0,2.998,1.349,2.998,2.998v18.041
				C524.386,63.359,523.487,64.26,522.389,64.26z"/>
			<path fill="#003399" d="M552.225,64.26h-18.941c-1.099,0-1.999-0.9-1.999-2c0-1.1,0.9-1.999,1.999-1.999h7.947
				c1.649,0,2.998-1.299,2.998-2.948v-9.045c0-1.649-1.349-2.949-2.998-2.949l-6.946-0.05c-1.651,0-3-1.301-3-2.95V27.377
				c0-1.65,1.349-2.949,3-2.949h15.142c1.101,0,1.999,0.85,1.999,1.949s-0.898,2-1.999,2h-11.193c-1.649,0-2.998,1.349-2.998,2.998
				v6.947c0,1.649,1.349,2.998,2.998,2.998h13.992c1.647,0,2.949,1.349,2.949,2.998v16.942
				C555.174,62.911,553.876,64.26,552.225,64.26z"/>
		</g>
		<g>
			<path fill="#003399" d="M240.956,64.26h-18.991c-1.651,0-3-1.349-3-2.998V27.276c0-1.649,1.349-2.999,3-2.999h18.991
				c1.099,0,1.999,0.9,1.999,2v6.996c0,1.1-0.9,2-1.999,2h-14.993c-1.649,0-2.998,1.351-2.998,2.998v18.99c0,1.65,1.349,3,2.998,3
				h9.995c1.651-0.05,3-1.35,3-3v-2.048c0-1.65-1.349-2.999-3-2.999h-5.098c-1.099,0-1.997-0.898-1.997-1.998v-6.999
				c0-1.098,0.898-1.999,1.997-1.999h9.097c1.649,0,2.998,1.349,2.998,2.999V62.26C242.955,63.36,242.055,64.26,240.956,64.26z"/>
			<path fill="#003399" d="M274.841,64.26h-9.494c-1.651,0-3-1.349-3-2.998v-4.999c0-1.65,1.349-2.999,3-2.999h5.945
				c0.802,0,1.5-0.649,1.5-1.5c0-0.199-0.049-0.448-0.15-0.649c-3.199-4.748-3.248-4.848-3.248-4.848c-0.402-0.6-1.001-1-1.75-1
				h-11.793c-1.101,0-2,0.9-2,2l0.002,2.999c0,1.647,1.349,2.998,2.998,2.998c0,0,2.998,1.349,2.998,2.999v4.999
				c0,1.649-1.349,2.998-2.998,2.998h-3.999c-1.649,0-2.998-1.349-2.998-2.998V27.276c0-1.649,1.349-2.999,2.998-2.999h5.299
				c1.05,0,1.948,0.5,2.448,1.301c0,0,0.15,0.199,16.843,25.586c0.249,0.701,0.4,1.451,0.4,2.25v7.848
				C277.842,62.911,276.49,64.26,274.841,64.26z M264.746,39.072l-6.496-9.848c-0.351-0.55-0.951-0.898-1.651-0.898h-0.748
				c-1.101,0-2,0.898-1.999,2l-0.002,7.946c0.002,1.649,1.3,2.998,3,2.998h6.546c0.8,0,1.499-0.699,1.499-1.498
				C264.896,39.52,264.846,39.271,264.746,39.072z"/>
			<path fill="#003399" d="M299.481,64.26h-11.744c-1.647,0-2.998-1.349-2.998-2.998v-4.999c0-1.65,1.351-2.999,2.998-2.999h0.851
				c1.649,0,2.998-1.351,2.998-2.998V26.277c0-1.1,0.9-2,1.999-2c0,0,1.999,0.9,1.999,2v23.989c0,1.647,1.351,2.998,3,2.998h0.9
				c1.648,0,2.998,1.349,2.998,2.999v4.999C302.481,62.911,301.131,64.26,299.481,64.26z"/>
			<path fill="#003399" d="M330.319,64.26h-18.942c-1.097,0-1.999-0.9-1.999-2c0-1.101,0.901-1.999,1.999-1.999h7.947
				c1.649,0,2.998-1.299,2.998-2.948v-9.047c0-1.649-1.349-2.948-2.998-2.948l-6.948-0.05c-1.649,0-2.998-1.3-2.998-2.949V27.377
				c0-1.649,1.349-2.95,2.998-2.95h15.144c1.101,0,2,0.85,2,1.95s-0.9,1.999-2,1.999h-11.194c-1.65,0-3,1.349-3,2.998v6.947
				c0,1.649,1.349,2.999,3,2.999h13.993c1.649,0,2.949,1.348,2.949,2.998v16.944C333.268,62.911,331.968,64.26,330.319,64.26z"/>
			<path fill="#003399" d="M365.154,64.26h-9.496c-1.649,0-2.998-1.349-2.998-2.998v-4.999c0-1.65,1.349-2.999,2.998-2.999h5.947
				c0.8,0,1.5-0.649,1.5-1.5c0-0.199-0.05-0.448-0.15-0.649c-3.199-4.748-3.249-4.848-3.249-4.848c-0.4-0.6-1-1-1.749-1h-11.794
				c-1.099,0-1.999,0.9-1.999,2v2.999c0,1.647,1.351,2.998,3,2.998c0,0,2.998,1.349,2.998,2.999v4.999
				c0,1.649-1.351,2.998-2.998,2.998h-3.999c-1.649,0-2.998-1.349-2.998-2.998V27.276c0-1.649,1.349-2.999,2.998-2.999h5.297
				c1.05,0,1.95,0.5,2.45,1.301c0,0,0.148,0.199,16.842,25.586c0.25,0.701,0.4,1.451,0.398,2.25v7.848
				C368.153,62.911,366.803,64.26,365.154,64.26z M355.059,39.072l-6.498-9.848c-0.351-0.55-0.95-0.898-1.649-0.898h-0.75
				c-1.099,0-1.999,0.898-1.999,2v7.946c0,1.649,1.3,2.998,3,2.998h6.546c0.799,0,1.498-0.699,1.498-1.498
				C355.208,39.52,355.159,39.271,355.059,39.072z"/>
		</g>
	</g>
</g>
<path fill="#003399" d="M82.159,120.897c-1.744,5.434-5.837,14.444-14.495,18.307c-0.921,0.411-0.921,1.555,0,1.966
	c8.658,3.863,12.751,12.873,14.495,18.307c0.33,1.029,1.934,1.029,2.264,0c1.744-5.434,5.837-14.444,14.495-18.307
	c0.921-0.411,0.921-1.555,0-1.966c-8.658-3.863-12.751-12.873-14.495-18.307C84.093,119.869,82.489,119.869,82.159,120.897z"/>
<path fill="#003399" d="M361.994,330.335c-1.761,5.488-5.896,14.587-14.64,18.488c-0.93,0.415-0.93,1.571,0,1.986
	c8.744,3.901,12.878,13,14.64,18.488c0.333,1.04,1.953,1.04,2.286,0c1.761-5.488,5.896-14.587,14.64-18.488
	c0.93-0.415,0.93-1.571,0-1.986c-8.744-3.901-12.878-13-14.64-18.488C363.947,329.295,362.328,329.295,361.994,330.335z"/>
<path fill="#003399" d="M627.361,209.623c-1.761,5.488-5.895,14.587-14.639,18.488c-0.931,0.415-0.931,1.571,0,1.986
	c8.744,3.901,12.878,13,14.639,18.488c0.334,1.04,1.953,1.04,2.286,0c1.762-5.488,5.896-14.587,14.64-18.488
	c0.931-0.415,0.931-1.571,0-1.986c-8.744-3.901-12.878-13-14.64-18.488C629.314,208.583,627.695,208.583,627.361,209.623z"/>
<path fill="#003399" d="M416.832,150.741h105.106v-4.483H416.832c-6.013,0-10.903-4.892-10.903-10.904h-4.484
	C401.444,143.838,408.348,150.741,416.832,150.741z"/>
<path fill="#003399" d="M498.006,174.061c-5.634,0-10.217-4.583-10.217-10.217h-4.484c0,8.106,6.595,14.701,14.701,14.701h178.137
	v-4.483H498.006z"/>
<path fill="#003399" d="M447.798,190.917h-4.484c0,9.556,7.775,17.331,17.331,17.331h96.309v-4.483h-96.309
	C453.561,203.765,447.798,198.001,447.798,190.917z"/>
<path fill="#003399" d="M375.21,217.564h-4.484c0,9.556,7.775,17.33,17.331,17.33h103.611v-4.483H388.057
	C380.973,230.411,375.21,224.647,375.21,217.564z"/>
<g>
	<path fill="#003399" d="M109.061,684.78c6.309,0,11.442-5.133,11.442-11.441h-4.568c0,3.79-3.083,6.873-6.874,6.873
		s-6.874-3.083-6.874-6.873h-4.568C97.619,679.647,102.752,684.78,109.061,684.78z"/>
	<path fill="#003399" d="M273.588,684.78c6.309,0,11.442-5.133,11.442-11.441h-4.568c0,3.79-3.083,6.873-6.874,6.873
		s-6.874-3.083-6.874-6.873h-4.568C262.146,679.647,267.279,684.78,273.588,684.78z"/>
	<polygon fill="#003399" points="190.539,199.76 189.262,204.058 195.852,206.015 190.333,210.112 193.006,213.712 202.125,206.942 
		201.426,202.993 	"/>
	<path fill="#003399" d="M239.044,197.234l4.479,0.205l0.237-5.175c1.43-0.204,2.87-0.509,4.304-0.912l2.222,4.524l4.024-1.977
		l-1.989-4.05c0.987-0.425,1.931-0.902,2.848-1.408l5.178,3.281l2.4-3.787l-3.481-2.207c1.857-1.475,3.447-3.115,4.643-4.873
		l-3.707-2.522c-2.354,3.461-6.618,6.448-11.697,8.193c-4.712,1.62-9.553,2.002-13.63,1.083l-0.987,4.373
		c1.704,0.385,3.51,0.578,5.371,0.592L239.044,197.234z"/>
	<path fill="#003399" d="M406.072,693.603h-0.276h-8.271c0.632-1.184,0.993-2.533,0.993-3.967c0-2.525-1.119-4.789-2.881-6.339
		c1.767-1.63,2.881-3.956,2.881-6.544c0-2.656-1.175-5.039-3.024-6.674c1.85-1.635,3.024-4.018,3.024-6.675
		c0-2.656-1.175-5.039-3.024-6.674c1.85-1.635,3.024-4.018,3.024-6.674c0-4.917-4-8.917-8.917-8.917h-26.956h-31.14l-73.749-204.648
		l72.809,94.446c1.96,2.543,4.927,4.001,8.139,4.001c2.496,0,4.907-0.911,6.789-2.566c2.696-2.371,3.835-5.916,3.302-9.309
		c1.317,0.579,2.75,0.891,4.207,0.891c2.019,0,3.965-0.591,5.628-1.71c2.353-1.582,3.962-4.091,4.416-6.882
		c0.175-1.076,0.173-2.166,0.008-3.228c1.303,0.564,2.717,0.868,4.154,0.868c2.019,0,3.965-0.592,5.628-1.71
		c2.353-1.582,3.962-4.091,4.415-6.882c0.175-1.076,0.174-2.166,0.008-3.228c1.303,0.563,2.718,0.868,4.155,0.868
		c2.019,0,3.965-0.592,5.628-1.71c2.353-1.583,3.962-4.092,4.415-6.883c0.454-2.792-0.276-5.679-2.004-7.919l-22.163-28.75
		l1.844,0.221c0.533,0.069,1.119,0.106,1.697,0.106c6.743,0,12.482-5.048,13.349-11.743c0.952-7.366-4.266-14.135-11.632-15.088
		l-24.175-3.299c-4.743-6.131-23.861-30.95-34.479-44.739l-56.78-79.569l-7.422-22.913c5.11-0.369,9.158-4.634,9.158-9.836
		c0-3.093-1.433-5.856-3.666-7.667c2.233-1.812,3.666-4.575,3.666-7.668c0-5.443-4.429-9.872-9.872-9.872h-1.959
		c24.423-9.359,40.942-25.317,42.273-41.64l72.221-8.117c9.922-1.055,16.237-5.749,19.307-14.349
		c1.066-2.986,1.316-6.221,0.725-9.353c-0.593-3.13-2.008-6.049-4.093-8.441c-5.702-6.542-14.752-8.284-24.833-4.778l-70.668,24.711
		c-8.011-8.746-21.71-14.429-38.004-16.373l44.933-7.771l1.827-2.591l-1.445-8.359l-1.822-1.826
		c-17.587-3.08-36.294-4.029-55.647-2.826l1.874-36.321l-2.621-2.324l-81.583,14.11l-1.707,3.023l13.459,34.542
		c-31.367,9.446-52.221,20.566-52.433,20.68l-1.147,2.356l1.446,8.359l2.591,1.827l37.254-6.443c0.027,0.406,0.067,0.813,0.14,1.223
		c0.084,0.478,0.207,0.938,0.347,1.388c-6.16,1.121-10.263,7.007-9.172,13.179c0.329,1.859,1.098,3.526,2.171,4.928
		c-3.389,2.483-5.276,6.745-4.495,11.162c0.72,4.069,3.523,7.231,7.115,8.618c2.064,8.901,8.998,16.511,19.619,21.792
		c-4.132,1.179-7.17,4.981-7.17,9.487c0,3.093,1.433,5.856,3.666,7.668c-2.233,1.811-3.666,4.574-3.666,7.667
		c0,5.3,4.201,9.625,9.446,9.851l-0.015,0.075l-61.794,120.74l0.1,0.051L56.811,506.663c-1.116,2.487-1.152,5.326-0.111,7.815
		c1.041,2.487,3.09,4.455,5.623,5.4c1.074,0.4,2.199,0.604,3.344,0.604c1.967,0,3.85-0.595,5.44-1.647
		c0.437,3.014,2.232,5.758,5.059,7.253c1.412,0.746,2.997,1.141,4.583,1.141c1.95,0,3.812-0.581,5.38-1.612
		c0.449,2.996,2.24,5.72,5.052,7.206c1.413,0.747,2.998,1.142,4.583,1.142c1.95,0,3.813-0.582,5.38-1.612
		c0.448,2.995,2.24,5.72,5.052,7.206c1.082,0.572,2.267,0.933,3.475,1.071L86.301,642.883l0.187,0.233l-0.223-0.029l-3.756,28.256
		c-0.877,6.599,1.06,13.319,5.313,18.439c1.208,1.454,2.561,2.729,4.023,3.82H76.901l-2.242,2.242v9.223v11.223l2.242,2.242h162.495
		l1.953-1.953l1.952,1.953h162.495l2.242-2.242v-10.946l0.276-0.276v-9.223L406.072,693.603z M364.464,645.624h25.138
		c2.444,0,4.433,1.988,4.433,4.433s-1.988,4.432-4.433,4.432h-27.007L364.464,645.624z M361.649,658.973h27.953
		c2.444,0,4.433,1.988,4.433,4.432c0,2.444-1.988,4.433-4.433,4.433h-29.822L361.649,658.973z M358.833,672.321h30.768
		c2.444,0,4.433,1.988,4.433,4.432c0,2.444-1.988,4.433-4.433,4.433h-32.637L358.833,672.321z M356.019,685.67h0.108h33.475h0.466
		c2.188,0,3.967,1.779,3.967,3.966c0,2.188-1.779,3.967-3.967,3.967h-35.722L356.019,685.67z M326.741,641.14h-8.641h-8.01
		c-1.759-4.836-3.708-10.201-5.814-16.001h16.699L326.741,641.14z M168.856,432.382c1.757,5.062,3.75,10.75,5.93,16.934h-15.2
		l-5.963-16.934H168.856z M152.043,427.897l-6.445-18.303h15.63c0.943,3.207,3.069,9.582,6.076,18.303H152.043z M246.151,577.819
		c-2.008-5.552-4.054-11.211-6.122-16.934h15.703c2.074,5.738,4.121,11.399,6.124,16.934H246.151z M263.48,582.304
		c2.108,5.824,4.161,11.489,6.135,16.933h-15.71c-1.983-5.474-4.033-11.136-6.131-16.933H263.48z M238.411,556.401
		c-2.026-5.61-4.068-11.269-6.11-16.933h15.701c2.046,5.674,4.088,11.333,6.111,16.933H238.411z M230.685,534.984
		c-2.041-5.665-4.078-11.323-6.096-16.933h15.701c2.02,5.617,4.057,11.275,6.095,16.933H230.685z M222.976,513.567
		c-2.057-5.724-4.089-11.383-6.079-16.934h15.705c1.99,5.556,4.021,11.216,6.076,16.934H222.976z M215.29,492.149
		c-2.078-5.799-4.103-11.46-6.057-16.933h15.715c1.951,5.475,3.974,11.138,6.048,16.933H215.29z M207.633,470.732
		c-2.111-5.919-4.127-11.588-6.022-16.933h15.734c1.889,5.346,3.901,11.016,6.006,16.933H207.633z M214.55,432.382h15.771
		c1.757,5.062,3.75,10.75,5.93,16.934h-15.74C218.323,443.133,216.321,437.447,214.55,432.382z M215.762,449.315h-15.74
		c-2.188-6.183-4.189-11.868-5.96-16.934h15.771C211.59,437.443,213.583,443.132,215.762,449.315z M202.863,470.732h-15.718
		c-2.111-5.919-4.127-11.588-6.022-16.933h15.734C198.746,459.146,200.757,464.815,202.863,470.732z M204.46,475.217
		c1.951,5.475,3.974,11.138,6.048,16.933h-15.707c-2.078-5.799-4.103-11.46-6.057-16.933H204.46z M212.114,496.634
		c1.99,5.556,4.021,11.216,6.076,16.934h-15.702c-2.057-5.724-4.089-11.383-6.079-16.934H212.114z M219.801,518.052
		c2.02,5.617,4.057,11.275,6.095,16.933h-15.7c-2.041-5.665-4.078-11.323-6.096-16.933H219.801z M227.513,539.469
		c2.046,5.674,4.088,11.333,6.111,16.933h-15.702c-2.026-5.61-4.068-11.269-6.109-16.933H227.513z M235.245,560.886
		c2.074,5.738,4.121,11.399,6.124,16.934h-15.706c-2.008-5.552-4.054-11.211-6.121-16.934H235.245z M242.992,582.304
		c2.108,5.824,4.161,11.489,6.135,16.933h-15.71c-1.983-5.474-4.033-11.136-6.131-16.933H242.992z M250.753,603.721
		c2.167,5.974,4.225,11.646,6.146,16.934h-15.715c-1.941-5.349-3.997-11.017-6.142-16.934H250.753z M255.53,603.721h15.711
		c2.167,5.974,4.225,11.646,6.146,16.934h-15.715C259.73,615.306,257.675,609.638,255.53,603.721z M279.015,625.139
		c2.164,5.957,4.116,11.326,5.816,16.001h-15.717c-1.759-4.836-3.708-10.201-5.814-16.001H279.015z M283.788,625.139h15.715
		c2.164,5.956,4.116,11.326,5.816,16.001h-15.717C287.844,636.304,285.894,630.938,283.788,625.139z M282.16,620.654
		c-1.941-5.349-3.997-11.017-6.142-16.934h15.711c2.167,5.974,4.225,11.646,6.146,16.934H282.16z M274.393,599.236
		c-1.983-5.474-4.034-11.136-6.131-16.933h15.707c2.108,5.824,4.161,11.489,6.135,16.933H274.393z M266.64,577.819
		c-2.008-5.552-4.054-11.211-6.122-16.934h15.703c2.074,5.738,4.121,11.399,6.124,16.934H266.64z M258.899,556.401
		c-2.026-5.61-4.068-11.269-6.11-16.933h15.701c2.046,5.674,4.088,11.333,6.111,16.933H258.899z M251.173,534.984
		c-2.041-5.665-4.078-11.323-6.096-16.933h15.701c2.02,5.617,4.057,11.275,6.095,16.933H251.173z M243.464,513.567
		c-2.057-5.724-4.089-11.383-6.079-16.934h15.705c1.99,5.556,4.021,11.216,6.076,16.934H243.464z M235.778,492.149
		c-2.078-5.799-4.103-11.46-6.057-16.933h15.715c1.951,5.475,3.974,11.138,6.048,16.933H235.778z M228.121,470.732
		c-2.111-5.919-4.127-11.588-6.022-16.933h15.734c1.889,5.346,3.901,11.016,6.006,16.933H228.121z M235.038,432.382h16.473
		l6.103,16.934h-16.615C238.811,443.133,236.809,437.447,235.038,432.382z M233.475,427.897c-2.997-8.62-5.151-14.977-6.182-18.303
		h8.607l13.113,15.856l0.882,2.447H233.475z M228.769,427.897h-15.783c-2.997-8.62-5.151-14.977-6.182-18.303h15.889
		C223.636,412.801,225.762,419.176,228.769,427.897z M208.281,427.897h-15.783c-2.997-8.62-5.151-14.977-6.182-18.303h15.889
		C203.147,412.801,205.274,419.176,208.281,427.897z M195.274,449.315h-15.74c-2.188-6.183-4.189-11.868-5.96-16.934h15.771
		C191.102,437.443,193.094,443.132,195.274,449.315z M176.368,453.8c1.889,5.346,3.901,11.016,6.006,16.933h-15.246l-5.963-16.933
		H176.368z M183.972,475.217c1.951,5.475,3.974,11.138,6.048,16.933H174.67l-5.963-16.933H183.972z M191.625,496.634
		c1.99,5.556,4.021,11.216,6.076,16.934h-15.488l-5.963-16.934H191.625z M199.313,518.052c2.02,5.617,4.057,11.275,6.096,16.933
		h-15.653l-5.963-16.933H199.313z M207.025,539.469c2.046,5.674,4.088,11.333,6.111,16.933h-15.702
		c-1.886-5.223-3.784-10.482-5.685-15.754l-0.415-1.179H207.025z M214.756,560.886c2.074,5.738,4.121,11.399,6.124,16.934h-15.706
		c-2.009-5.556-4.053-11.208-6.121-16.934H214.756z M222.504,582.304c2.109,5.824,4.161,11.489,6.135,16.933h-15.71
		c-0.646-1.782-1.296-3.577-1.956-5.398c-0.099-0.272-0.197-0.546-0.296-0.818c-1.27-3.507-2.567-7.091-3.879-10.716H222.504z
		 M230.265,603.721c2.167,5.974,4.225,11.646,6.146,16.934h-15.715c-1.077-2.968-2.186-6.024-3.33-9.177
		c-0.061-0.167-0.121-0.335-0.182-0.502c-0.316-0.873-0.636-1.753-0.957-2.639c-0.551-1.519-1.11-3.063-1.673-4.616H230.265z
		 M238.039,625.139c2.284,6.287,4.334,11.927,6.098,16.777l-15.665,0.142c-1.843-5.065-3.911-10.756-6.148-16.919H238.039z
		 M242.812,625.139h15.715c2.165,5.958,4.116,11.326,5.816,16.001h-15.717C246.867,636.304,244.917,630.938,242.812,625.139z
		 M315.221,645.755l-11.559,47.848h-31.824c-9.668,0-17.771-6.933-19.268-16.484l-4.816-30.752L315.221,645.755z M319.359,620.654
		h-16.71c-1.941-5.349-3.998-11.017-6.142-16.934h16.75L319.359,620.654z M311.641,599.236h-16.759
		c-1.983-5.474-4.034-11.136-6.131-16.933h16.788L311.641,599.236z M303.922,577.819h-16.794
		c-2.008-5.552-4.054-11.211-6.122-16.934h16.813L303.922,577.819z M296.204,556.401h-16.816c-2.026-5.61-4.068-11.269-6.11-16.933
		h16.824L296.204,556.401z M288.486,534.984h-16.825c-2.041-5.665-4.078-11.323-6.096-16.933h16.818L288.486,534.984z
		 M280.768,513.567h-16.815c-2.057-5.724-4.089-11.383-6.079-16.934h16.792L280.768,513.567z M273.049,492.149h-16.783
		c-2.078-5.799-4.103-11.46-6.057-16.933h16.738L273.049,492.149z M259.229,453.8l6.102,16.933h-16.722
		c-2.111-5.919-4.127-11.588-6.022-16.933H259.229z M345.957,431.183l26.017,3.55c4.923,0.638,8.396,5.144,7.76,10.066
		c-0.586,4.531-4.451,7.835-8.901,7.835c-0.384,0-0.773-0.024-1.165-0.075l-12.447-1.488l28.683,37.207
		c2.03,2.633,1.44,6.458-1.362,8.344c-0.957,0.644-2.043,0.947-3.126,0.947c-1.815,0-3.622-0.852-4.801-2.38l-22.25-28.863
		l-5.038,3.884l22.372,29.021c2.029,2.633,1.439,6.458-1.363,8.343c-0.957,0.644-2.043,0.947-3.126,0.947
		c-1.814,0-3.622-0.851-4.8-2.38l-22.25-28.862l-5.038,3.883l22.372,29.021c2.03,2.633,1.44,6.458-1.363,8.344
		c-0.957,0.643-2.043,0.946-3.126,0.946c-1.814,0-3.622-0.851-4.8-2.379l-22.25-28.863l-5.038,3.884l22.25,28.863
		c1.882,2.441,1.684,5.994-0.631,8.03c-1.112,0.978-2.475,1.449-3.828,1.449c-1.733,0-3.448-0.775-4.588-2.255l-75.426-97.842
		l54.336-41.888C321.334,399.257,345.728,430.928,345.957,431.183z M302.129,373.48l-53.999,44.008l-12.56-15.327l55.433-44.271
		L302.129,373.48z M279.804,342.194l-56.505,45.127l0.311,0.375l-12.5-15.116l57.57-45.977L279.804,342.194z M257.479,310.909
		l-58.642,46.833l-12.19-14.74l59.707-47.684L257.479,310.909z M174.448,328.104c-0.004-0.006-0.008-0.012-0.012-0.018
		c-4.118-5.7-6.46-12.181-7.121-18.761l48.782-38.959c5.602,1.606,10.864,4.55,15.238,8.802l1.563,0.634h2.03L174.448,328.104z
		 M248.978,275.319h-12.021c-4.729-4.877-10.524-8.563-16.884-10.778h28.904c2.971,0,5.389,2.417,5.389,5.389
		S251.949,275.319,248.978,275.319z M158.591,136.964l69.725-13.639l-1.042,20.208L165.6,154.952L158.591,136.964z M164.71,159.676
		l64.983-12.031c14.726-1.049,29.071-0.828,42.832,0.637l-146.624,25.359C135.302,169.593,148.667,164.39,164.71,159.676z
		 M113.113,184.462l-0.682-3.942l172.792-29.885l0.681,3.941l-68.426,11.835c-2.645,0.298-5.311,0.678-7.99,1.151
		c-2.387,0.422-4.746,0.908-7.068,1.453L113.113,184.462z M204.82,192.97c-0.028-0.021-0.055-0.043-0.083-0.064l0.015-0.004
		L204.82,192.97z M149.885,224.063c5.447-1.778,23.593-7.513,29.406-9.348c1.255,2.353,3.045,4.4,5.294,5.973
		c2.918,2.042,6.317,3.105,9.806,3.105c1.005,0,2.017-0.088,3.027-0.267c5.362-0.948,10.004-4.447,12.416-9.358l-4.024-1.977
		c-1.811,3.688-5.153,6.209-9.172,6.92c-3.337,0.59-6.705-0.155-9.482-2.097s-4.632-4.851-5.222-8.188
		c-1.218-6.89,3.396-13.486,10.286-14.704c4.017-0.712,8.022,0.511,10.988,3.354l2.995-3.125l5.039,5.039l9.436-1.206
		c0,0-0.384-18.863-0.546-27.543c25.843-2.471,48.973,3.624,59.405,16.166l2.463,0.683l72.095-25.21
		c11.308-3.931,17.37,0.499,19.979,3.491c1.562,1.792,2.621,3.98,3.065,6.328c0.445,2.35,0.258,4.774-0.541,7.012
		c-1.552,4.348-4.853,10.259-15.572,11.399l-74.139,8.333l-1.991,2.217c-0.021,4.344-1.393,8.737-3.902,13.005
		c-5.922,0.836-16.536,0.412-25.202-10.295l-3.485,2.82c8.237,10.177,18.239,12.212,24.918,12.212c0.168,0,0.322-0.008,0.486-0.011
		c-8.825,10.994-25.092,20.659-44.931,25.771h-45.137c-0.599,0-1.21,0.054-1.822,0.162h-10.015
		C162.082,240.512,152.843,233.084,149.885,224.063z M167.351,249.206h8.122h10.554h62.951c2.971,0,5.389,2.417,5.389,5.389
		c0,2.972-2.417,5.389-5.389,5.389h-81.627c-2.972,0-5.389-2.417-5.389-5.389C161.961,251.624,164.379,249.206,167.351,249.206z
		 M161.961,269.93c0-2.972,2.417-5.389,5.389-5.389h24.258c-4.192,1.468-8.163,3.587-11.801,6.336
		c-1.803,1.362-3.464,2.854-5.004,4.442h-7.453C164.379,275.319,161.961,272.902,161.961,269.93z M181.716,409.594
		c0.943,3.207,3.069,9.582,6.076,18.303H172.01c-2.997-8.62-5.151-14.977-6.182-18.303H181.716z M163.646,296.075
		c-0.311,1.413-1.955,9.444-1.955,9.444l-2.341-1.05L163.646,296.075z M150.11,322.522l7.926,3.555l-3.291,17.14l-12.384-5.554
		L150.11,322.522z M134.562,352.904l16.871,7.567l-3.291,17.139l-21.329-9.566L134.562,352.904z M119.012,383.285l25.817,11.58
		c0,0-4.611,12.753-4.561,12.982l-0.715,2.035l-27.666-12.677L119.012,383.285z M100.613,526.342
		c-0.884,1.971-2.82,3.139-4.849,3.139c-0.836,0-1.688-0.199-2.488-0.622c-2.5-1.321-3.437-4.448-2.28-7.029l13.684-30.509
		l-5.325-2.388l-13.758,30.674c-0.884,1.971-2.821,3.139-4.849,3.139c-0.836,0-1.688-0.198-2.488-0.621
		c-2.5-1.322-3.438-4.449-2.28-7.03l13.684-30.508l-5.325-2.389l-13.684,30.508c-0.902,2.012-2.897,3.294-4.989,3.294
		c-0.592,0-1.192-0.103-1.777-0.321c-2.904-1.083-4.248-4.37-3-7.153l48.786-106.852l28.802,12.918L121.57,488.57
		c-6.397-3.845-13.27-10.062-14.653-19.455l-4.52,0.666c1.31,8.893,6.929,16.638,16.251,22.398c0.622,0.385,1.239,0.743,1.849,1.085
		l-1.067,4.671l-5.058-2.269L100.613,526.342z M108.292,535.594c-2.5-1.322-3.438-4.449-2.28-7.029l13.084-29.172l-8.415,36.815
		C109.877,536.194,109.061,536,108.292,535.594z M91.27,686.916c-3.457-4.159-5.03-9.62-4.317-14.982l3.497-26.31h61.817
		l-11.59,47.979h-35.239c-0.342,0-0.682-0.008-1.025-0.026C99.285,693.31,94.617,690.944,91.27,686.916z M237.154,714.048H79.143
		v-6.738h158.012V714.048z M215.85,659.283c0.434,0,0.856-0.042,1.273-0.102c1.821,0.551,3.159,2.225,3.159,4.223
		c0,2.444-1.988,4.433-4.432,4.433h-19.056l1.804-8.554H215.85z M199.609,654.488l1.804-8.554h14.437
		c2.444,0,4.432,1.988,4.432,4.433c0,1.998-1.338,3.672-3.159,4.223c-0.417-0.06-0.84-0.102-1.273-0.102H199.609z M215.85,672.321
		c2.444,0,4.432,1.988,4.432,4.432c0,2.444-1.988,4.433-4.432,4.433h-0.443h-21.428l1.869-8.864H215.85z M215.407,685.67
		c2.266,0,4.162,1.724,4.226,3.843c0.033,1.084-0.365,2.109-1.118,2.886c-0.754,0.776-1.765,1.204-2.847,1.204H191.36l1.673-7.933
		H215.407z M243.024,693.603l-1.538,1.538l-1.538-1.538h-0.553h-16.27c0.685-1.283,1.032-2.726,0.987-4.225
		c-0.067-2.233-1.059-4.26-2.606-5.739c1.988-1.637,3.257-4.115,3.257-6.886c0-2.656-1.174-5.039-3.024-6.674
		c1.85-1.635,3.024-4.018,3.024-6.675c0-2.574-1.103-4.89-2.853-6.519c1.75-1.629,2.853-3.944,2.853-6.519
		c0-4.917-4-8.917-8.916-8.917h-15.937l-0.252-0.311h-20.843l17.074-75.764c11.819,32.691,22.619,62.415,28.908,79.704h0l0,0
		l2.127,1.475l16.295-0.147l4.919,31.404c1.032,6.59,4.623,12.165,9.674,15.791h-14.514H243.024z M403.554,714.048H245.542v-6.738
		h158.011V714.048z"/>
</g>
</svg>
