<svg enable-background="new 0 0 600 600" height="600" viewBox="0 0 600 600" width="600" xmlns="http://www.w3.org/2000/svg"><g fill="#039"><path d="m484 65.305h-366.208l-3.827 3.812-1.235 382.511.009.004-.009.005v79.736l3.828 3.823h366.208l3.822-3.823v-79.724l1.235-382.508zm-5.062 462.245h-358.553v-72.092h358.553zm-357.584-79.737 24.844-108.625v108.625zm56.092 0v-150.415c3.208-.832 6.566-1.272 10.022-1.272h17.991v151.687zm155.978-304.725c-17.854 0-32.583 13.593-34.397 30.971h-4.027c-1.814-17.378-16.548-30.971-34.402-30.971-17.743 0-32.384 13.429-34.349 30.652l-33.61-.821c10.102-13.548 28.039-24.968 50.711-32.012 55.22-14.438 106.723-.17 107.156-.046 21.906 6.803 39.419 17.652 49.72 30.535l-32.609 1.321c-2.42-16.727-16.808-29.629-34.193-29.629zm25.03 34.59c0 13.803-11.229 25.033-25.03 25.033-12.761 0-23.203-9.635-24.725-21.988v-6.088c1.521-12.354 11.964-21.986 24.725-21.986 13.801-.002 25.03 11.228 25.03 25.029zm-72.821 0c0 13.803-11.23 25.033-25.035 25.033-13.801 0-25.03-11.23-25.03-25.033 0-13.8 11.229-25.03 25.03-25.03 13.805-.001 25.035 11.229 25.035 25.03zm-59.419 3.712c1.863 17.333 16.566 30.877 34.384 30.877 8.743 0 16.716-3.283 22.809-8.65l-.792 2.628c-1.332 6.259 1.279 12.858 6.796 16.093 2.23 1.307 4.827 2.055 7.602 2.055 2.77 0 5.367-.748 7.597-2.055 5.522-3.235 8.129-9.834 6.801-16.093l-.796-2.628c6.097 5.367 14.065 8.65 22.809 8.65 17.514 0 31.986-13.086 34.247-29.983l45.41-2.423c2.912-8.577 10.951-14.34 20.009-14.34 5.757 0 11.133 2.274 15.15 6.4 4.008 4.126 6.132 9.573 5.969 15.338-.328 11.409-10.287 20.727-21.668 20.51-5.986-.153-11.654-2.865-15.548-7.442l-6.717 2.069c-.628 5.871-2.682 11.583-5.934 17.026-2.73-2.328-6.173-3.825-9.96-4.071-.381-.026-.761-.038-1.142-.038-4.633 0-8.991 1.805-12.27 5.082-1.115 1.115-2.058 2.356-2.818 3.688-2.827-4.92-7.916-8.35-13.845-8.732-.381-.026-.762-.038-1.142-.038-4.633 0-8.991 1.805-12.27 5.082-3.274 3.278-5.08 7.637-5.08 12.271v23.902c-59.237 12.736-105.616-1.772-106.661-2.108-32.756-11.276-53.49-30.959-55.477-52.66l-6.801-2.029c-4.04 5.088-10.07 8.006-16.557 8.006-5.752 0-11.128-2.274-15.146-6.398-4.009-4.124-6.133-9.57-5.973-15.334.314-11.114 9.61-20.32 20.729-20.521 9.265-.142 17.871 5.982 20.601 14.951zm217.473 112.712v-61.102c0-5.168 3.903-9.681 9.058-10.015.217-.016.434-.022.646-.022 5.362 0 9.707 4.345 9.707 9.706v158.093h-.358c0 16.805-26.623 30.999-58.127 30.999-27.043 0-50.428-10.464-56.529-24.052.009-24.097.005-47.99-.022-48.335l-30.91-31.345c-5.885-5.885-5.885-15.427 0-21.312.226-.226.486-.383.726-.591 1.411-1.25 3-2.199 4.673-2.84.097-.038.198-.055.296-.088.739-.266 1.487-.489 2.252-.635.894-.162 1.801-.259 2.708-.259s1.814.097 2.708.259c.766.146 1.514.37 2.252.635.098.033.199.051.297.088 1.673.642 3.257 1.59 4.672 2.84.235.208.5.365.726.591l14.726 14.444.014.066c.004 0 .044-.005.049-.005l.217.213v-.248c2.822-.434 44.844-6.367 62.596 21.465l6.565-4.19c-19.273-30.219-60.648-26.312-69.161-25.147v-7.188-7.648-55.811c0-5.36 4.345-9.706 9.703-9.706.217 0 .429.007.65.022 5.154.334 9.058 4.847 9.058 10.015v61.103h10.663v-61.435c0-5.36 4.345-9.706 9.703-9.706.217 0 .429.007.646.022 5.16.334 9.063 4.847 9.063 10.015v61.103h10.663v-61.435c0-5.36 4.345-9.706 9.703-9.706.217 0 .43.007.646.022 5.159.334 9.057 4.847 9.057 10.015v61.103h10.664zm-204.459-15.376h106.59v9.752h-5.389c-3.687-2.476-8.054-3.823-12.624-3.823-4.562 0-8.916 1.338-12.619 3.823h-74.949c-2.142-1.15-3.531-3.336-3.531-5.798 0-1.701 1.008-3.21 2.522-3.954zm-2.522-13.011c0-1.387.65-2.652 1.699-3.487 6.022 1.766 27.407 7.336 57.525 7.336 14.783 0 31.693-1.387 49.888-5.192v6.706h-106.28c-1.74-1.239-2.832-3.201-2.832-5.363zm58.993 30.411h12.478c-4.96 8.673-3.831 19.911 3.566 27.31l12.243 12.415v111.962h-28.287zm-59.259 0h2.792 25.491v151.687h-28.283zm242.595 125.705-8.291-32.194v-156.97c0-9.568-7.783-17.354-17.354-17.354-.377 0-.757.011-1.138.038-5.969.385-11.084 3.856-13.897 8.827-2.814-4.971-7.934-8.442-13.898-8.827-.38-.026-.761-.038-1.142-.038-3.526 0-6.885 1.058-9.734 3 1.239-2.655 2.253-5.358 2.991-8.11 4.593 3.223 10.075 5.068 15.77 5.212.239.004.474.009.708.009 15.261 0 28.376-12.642 28.8-27.951.227-7.849-2.668-15.265-8.128-20.884-5.469-5.62-12.791-8.715-20.632-8.715-9.77 0-18.668 4.92-23.92 12.77-3.991-5.867-9.27-11.378-15.61-16.402 7.562-2.473 13.07-9.471 13.07-17.867 0-10.464-8.486-18.949-18.95-18.949-3.447 0-6.637.991-9.42 2.6-2.217-8.004-9.479-13.914-18.186-13.914-5.27 0-10.026 2.155-13.46 5.624-2.615-7.341-9.553-12.628-17.792-12.628-5.628 0-10.57 2.555-14.039 6.455-3.46-4.548-8.876-7.533-15.035-7.533-.182 0-.363.029-.544.036-.186-.007-.363-.036-.549-.036-6.159 0-11.575 2.984-15.035 7.533-3.464-3.9-8.411-6.455-14.04-6.455-8.239 0-15.176 5.287-17.787 12.628-3.434-3.469-8.194-5.624-13.459-5.624-8.708 0-15.974 5.909-18.186 13.914-2.788-1.608-5.978-2.6-9.425-2.6-10.464 0-18.946 8.484-18.946 18.949 0 7.31 4.186 13.557 10.248 16.705-7.19 5.465-13.15 11.513-17.491 18.024-5.305-8.216-14.619-13.369-24.738-13.225-15.15.272-27.813 12.812-28.234 27.957-.217 7.845 2.672 15.259 8.132 20.875 5.469 5.622 12.792 8.712 20.628 8.712 6.23 0 12.155-1.974 17.031-5.568 5.292 20.396 24.566 38.388 53.401 49.667-1.088 1.836-1.699 3.962-1.699 6.192 0 3.286 1.133 6.403 3.106 8.889-1.951 2.177-3.106 5.038-3.106 8.075 0 2.04.434 4.006 1.23 5.798h-42.817c-22.088 0-40.955 15.04-45.875 36.572l-21.101 92.25 1.11-344.35h358.562z"/><path d="m329.822 490.502h-11.619c-1.371 0-2.491-1.124-2.491-2.491v-5.77c0-1.367 1.12-2.491 2.491-2.491h9.297c.911 0 1.659-.748 1.659-1.659 0-.916-.748-1.62-1.659-1.62h-12.58c-1.367 0-2.49 1.08-2.49 2.447v12.411c0 1.372 1.123 2.451 2.49 2.451l5.774.04c1.367 0 2.486 1.08 2.486 2.451v7.513c0 1.372-1.119 2.452-2.486 2.452h-6.602c-.911 0-1.659.743-1.659 1.654 0 .916.748 1.664 1.659 1.664h15.729c1.372 0 2.451-1.124 2.451-2.491v-14.075c.001-1.367-1.078-2.486-2.45-2.486z"/><path d="m346.928 477.427c-.415-.668-1.163-1.079-2.035-1.079h-4.397c-1.372 0-2.491 1.119-2.491 2.49v28.226c0 1.367 1.119 2.491 2.491 2.491h3.318c1.371 0 2.491-1.124 2.491-2.491v-4.15c0-1.372-2.491-2.491-2.491-2.491-1.372 0-2.491-1.124-2.491-2.491v-2.491c0-.911.748-1.659 1.659-1.659h9.796c.624 0 1.124.332 1.456.827 0 0 .04.089 2.699 4.027.079.168.124.376.124.539 0 .708-.584 1.248-1.248 1.248h-4.938c-1.372 0-2.491 1.119-2.491 2.491v4.15c0 1.367 1.119 2.491 2.491 2.491h7.885c1.371 0 2.49-1.124 2.49-2.491v-6.518c0-.664-.123-1.283-.331-1.867-13.863-21.088-13.987-21.252-13.987-21.252zm2.323 13.03h-5.438c-1.411 0-2.491-1.119-2.491-2.486v-6.602c0-.911.748-1.664 1.659-1.664h.624c.579 0 1.079.293 1.371.753l5.395 8.177c.084.163.123.371.128.579-.005.664-.584 1.243-1.248 1.243z"/><path d="m385.073 489.59c-.456-.46-.748-1.079-.748-1.743v-8.885c0-1.371-1.079-2.491-2.446-2.491h-12.411c-1.372 0-2.491 1.12-2.491 2.491v28.102c0 1.367 1.119 2.491 2.491 2.491h3.318c1.371 0 2.451-1.124 2.451-2.491v-10.748c0-1.371 1.119-2.495 2.491-2.495h4.982c1.367 0 2.446 1.124 2.446 2.495v11.575c0 .911 1.659 1.664 1.659 1.664.912 0 1.659-.753 1.659-1.664v-13.862c0-.664-.287-1.288-.747-1.743zm-4.026-1.539c0 1.371-1.119 2.495-2.491 2.495h-5.77c-1.367 0-2.491-1.124-2.491-2.495v-5.81c0-1.367 1.124-2.447 2.491-2.447h5.77c1.372 0 2.491 1.08 2.491 2.447z"/><path d="m412.263 476.348h-15.773c-1.367 0-2.491 1.119-2.491 2.49v28.226c0 1.367 1.124 2.491 2.491 2.491h15.773c.916 0 1.659-.753 1.659-1.664v-14.981c0-1.372-1.119-2.491-2.491-2.491h-7.553c-.911 0-1.659.747-1.659 1.659v5.813c0 .912.748 1.659 1.659 1.659h4.234c1.372 0 2.491 1.12 2.491 2.491v1.699c0 1.372-1.119 2.451-2.491 2.491h-8.301c-1.371 0-2.491-1.119-2.491-2.491v-15.77c0-1.371 1.12-2.495 2.491-2.495h12.451c.916 0 1.659-.743 1.659-1.655v-5.813c.001-.912-.742-1.659-1.658-1.659z"/><path d="m437.045 490.502h-11.623c-1.367 0-2.491-1.124-2.491-2.491v-5.77c0-1.367 1.124-2.491 2.491-2.491h9.296c.916 0 1.664-.748 1.664-1.659 0-.916-.748-1.62-1.664-1.62h-12.574c-1.372 0-2.491 1.08-2.491 2.447v12.411c0 1.372 1.119 2.451 2.491 2.451l5.77.04c1.371 0 2.491 1.08 2.491 2.451v7.513c0 1.372-1.12 2.447-2.491 2.447h-6.602c-.912 0-1.659.748-1.659 1.659s.747 1.664 1.659 1.664h15.733c1.372 0 2.447-1.124 2.447-2.491v-14.075c0-1.367-1.08-2.486-2.447-2.486z"/><path d="m178.521 476.343h-15.77c-1.372 0-2.491 1.124-2.491 2.495v28.226c0 1.367 1.119 2.491 2.491 2.491h15.77c.916 0 1.664-.748 1.664-1.664v-14.981c0-1.372-1.124-2.491-2.491-2.491h-7.557c-.912 0-1.659.747-1.659 1.659v5.813c0 .912.748 1.659 1.659 1.659h4.234c1.372 0 2.491 1.12 2.491 2.491v1.699c0 1.372-1.12 2.451-2.491 2.496h-8.3c-1.372 0-2.491-1.124-2.491-2.496v-15.77c0-1.371 1.119-2.495 2.491-2.495h12.451c.916 0 1.664-.743 1.664-1.659v-5.81c-.001-.911-.749-1.663-1.665-1.663z"/><path d="m194.835 477.427c-.416-.668-1.159-1.084-2.031-1.084h-4.402c-1.367 0-2.487 1.124-2.487 2.495v28.226c0 1.367 1.12 2.491 2.487 2.491h3.323c1.372 0 2.491-1.124 2.491-2.491v-4.15c0-1.372-2.491-2.491-2.491-2.491-1.372 0-2.491-1.124-2.491-2.491v-2.491c0-.911.748-1.659 1.659-1.659h9.796c.624 0 1.12.332 1.451.827 0 0 .044.089 2.699 4.027.084.168.124.376.124.539 0 .708-.58 1.248-1.243 1.248h-4.938c-1.372 0-2.491 1.119-2.491 2.491v4.15c0 1.367 1.12 2.491 2.491 2.491h7.885c1.372 0 2.491-1.124 2.491-2.491v-6.518c0-.664-.124-1.283-.332-1.867-13.863-21.088-13.991-21.252-13.991-21.252zm2.327 13.03h-5.438c-1.412 0-2.491-1.119-2.491-2.486v-6.602c0-.911.748-1.664 1.659-1.664h.624c.579 0 1.079.293 1.367.753l5.398 8.177c.084.163.124.371.124.579 0 .664-.579 1.243-1.243 1.243z"/><path d="m227.13 500.422h-.748c-1.367 0-2.491-1.124-2.491-2.491v-19.924c0-.912-1.659-1.664-1.659-1.664-.912 0-1.659.752-1.659 1.664v19.924c0 1.367-1.12 2.491-2.491 2.491h-.708c-1.367 0-2.487 1.119-2.487 2.491v4.15c0 1.367 1.12 2.491 2.487 2.491h9.756c1.372 0 2.491-1.124 2.491-2.491v-4.15c.001-1.372-1.119-2.491-2.491-2.491z"/><path d="m252.74 490.502h-11.619c-1.372 0-2.491-1.124-2.491-2.491v-5.77c0-1.372 1.12-2.491 2.491-2.491h9.296c.916 0 1.659-.743 1.659-1.659s-.743-1.62-1.659-1.62h-12.575c-1.372 0-2.491 1.08-2.491 2.447v12.416c0 1.367 1.119 2.446 2.491 2.446l5.765.04c1.372 0 2.491 1.08 2.491 2.451v7.513c0 1.372-1.12 2.452-2.491 2.452h-6.597c-.912 0-1.659.743-1.659 1.654 0 .916.748 1.664 1.659 1.664h15.729c1.372 0 2.451-1.124 2.451-2.491v-14.075c.001-1.367-1.078-2.486-2.45-2.486z"/><path d="m269.846 477.427c-.416-.668-1.164-1.084-2.036-1.084h-4.398c-1.372 0-2.491 1.124-2.491 2.495v28.226c0 1.367 1.119 2.491 2.491 2.491h3.319c1.371 0 2.491-1.124 2.491-2.491v-4.15c0-1.372-2.491-2.491-2.491-2.491-1.367 0-2.491-1.124-2.491-2.491v-2.491c0-.911.748-1.659 1.659-1.659h9.796c.624 0 1.124.332 1.456.827 0 0 .04.089 2.694 4.027.084.168.128.376.128.539 0 .708-.584 1.248-1.248 1.248h-4.938c-1.372 0-2.491 1.119-2.491 2.491v4.15c0 1.367 1.12 2.491 2.491 2.491h7.885c1.372 0 2.491-1.124 2.491-2.491v-6.518c0-.664-.124-1.283-.332-1.867-13.861-21.088-13.985-21.252-13.985-21.252zm2.323 13.03h-5.438c-1.412 0-2.491-1.119-2.491-2.486v-6.602c0-.911.748-1.664 1.659-1.664h.624c.58 0 1.08.293 1.372.753l5.394 8.177c.084.163.124.371.124.579 0 .664-.58 1.243-1.244 1.243z"/><path d="m140.575 258.069c8.093 3.611 11.92 12.035 13.553 17.115.31.962 1.805.962 2.115 0 1.632-5.08 5.46-13.504 13.553-17.115.862-.385.862-1.453 0-1.838-8.093-3.611-11.92-12.035-13.553-17.115-.31-.962-1.806-.962-2.115 0-1.633 5.08-5.46 13.504-13.553 17.115-.863.385-.863 1.454 0 1.838z"/><path d="m425.572 119.611c8.098 3.613 11.925 12.035 13.553 17.117.31.96 1.81.96 2.115 0 1.633-5.082 5.46-13.504 13.553-17.117.862-.383.862-1.454 0-1.838-8.093-3.61-11.92-12.035-13.553-17.115-.306-.962-1.806-.962-2.115 0-1.628 5.08-5.455 13.504-13.553 17.115-.863.384-.863 1.455 0 1.838z"/><path d="m443.439 191.979-10.442-5.224 10.442-5.221-3.416-6.841-17.287 8.642v6.84l17.287 8.642z"/><path d="m148.5 181.534 10.442 5.221-10.442 5.224 3.416 6.838 17.287-8.642v-6.84l-17.287-8.642z"/><path d="m297.009 246.842c18.88 0 34.243-12.672 34.243-28.249h-9.563c0 10.305-11.07 18.69-24.68 18.69-13.606 0-24.676-8.385-24.676-18.69h-9.558c0 15.577 15.359 28.249 34.234 28.249z"/><circle cx="328.212" cy="178.271" r="8.259"/><circle cx="264.211" cy="178.271" r="8.259"/></g></svg>