<?xml version="1.0" encoding="utf-8"?>
<!-- Generator: Adobe Illustrator 16.0.0, SVG Export Plug-In . SVG Version: 6.00 Build 0)  -->
<!DOCTYPE svg PUBLIC "-//W3C//DTD SVG 1.1//EN" "http://www.w3.org/Graphics/SVG/1.1/DTD/svg11.dtd">
<svg version="1.1" id="Layer_1" xmlns="http://www.w3.org/2000/svg" xmlns:xlink="http://www.w3.org/1999/xlink" x="0px" y="0px"
	 width="1280px" height="800px" viewBox="0 0 1280 800" enable-background="new 0 0 1280 800" xml:space="preserve">
<path fill="#003399" d="M422.662,593.686c0,0,0,0-30.978,0.884c-4.427-0.884-7.966,2.658-7.966,7.969
	c0.003,3.542,3.542,7.078,7.968,7.962c0,0,0,0,73.459-0.878c7.081,0,11.502-4.421,11.519-11.522c0,0,0,0,0-65.493
	c0-7.084-5.311-12.395-11.508-11.511c0,0,0,0-53.989-0.884c-7.081,0.006-12.392-5.311-11.508-11.505c0,0,0,0,0-26.547
	c-0.881-6.2,4.427-11.505,11.508-11.511c0,0,0,0,43.368-0.884c4.423,0.89,7.96-2.646,7.079-7.079
	c0.881-4.426-2.658-7.963-7.968-7.968c0,0,0,0-58.417,0.005c-6.195,0.885-10.621,5.306-11.505,11.505c0,0,0,0-0.003,58.415
	c0.887,6.194,5.313,10.621,11.508,11.511c0,0,0,0,26.552-0.006c7.079,0.006,12.387,5.316,11.505,11.506c0,0,0,0,0.885,34.521
	C434.167,589.259,428.856,594.569,422.662,593.686z"/>
<path fill="#003399" d="M612.95,598.111c0,0,0,0-0.887-30.979c0.887-2.652,0.006-5.311-0.878-7.963
	c-65.497-99.136-66.38-100.02-66.38-100.02c-0.884-2.652-5.308-5.305-8.853-5.305c0,0,0,0-20.352,0.884
	c-7.082,0-12.395,5.311-11.508,11.505c0,0,0,0-0.887,131.877c0.881,6.189,6.195,11.5,11.505,11.505c0,0,0,0,15.929,0.006
	c7.079-0.006,11.508-4.438,11.508-11.511c0,0,0,0,0.003-19.468c-0.003-7.079-11.511-11.511-11.511-11.511
	c-7.079,0.006-12.389-5.311-11.502-11.505c0,0,0,0,0-12.39c-0.009-3.541,3.533-7.084,7.079-7.078c0,0,0,0,46.023,0.006
	c3.539-0.006,5.308,1.768,7.078,3.536c0,0,0,0,12.393,19.474c0.887,0.885,0.887,0.885,0.887,2.652
	c-0.887,2.652-2.655,4.421-5.313,5.311c0,0,0,0-23.013,0c-7.079,0-12.392,5.311-11.502,11.505c0,0,0,0,0,19.474
	c-0.89,6.194,4.423,11.505,11.502,11.505c0,0,0,0,36.286,0.878C606.753,609.622,612.063,604.312,612.95,598.111z M556.307,520.234
	c0,0,0,0-25.668,0.885c-6.194-0.885-11.505-6.195-12.389-12.39c0,0,0,0,0.884-30.979c-0.003-3.542,3.539-7.084,7.966-7.963
	c0,0,0,0,2.649,0.879c2.664-0.885,4.432,0.884,6.203,2.657c0,0,0,0,25.662,38.052c0.006,1.769,0.006,1.769,0,3.548
	C562.504,517.576,559.849,520.234,556.307,520.234z"/>
<path fill="#003399" d="M689.07,536.166c0,0,0,0,23.016,0c7.073-0.006,12.39,5.305,11.5,11.499c0,0,0,0,0.89,53.994
	c-0.896,4.427,7.962,7.963,7.962,7.963c3.537,0,7.079-3.542,7.079-7.084c0,0,0,0,0-65.494c-0.006-3.548-0.884-6.194-3.542-8.853
	c0,0,0,0-12.389-12.389c-1.774-1.774-2.647-4.432-3.537-7.084c0,0,0,0-0.006-42.484c0.006-5.311-4.42-11.505-11.499-11.505
	c0,0,0,0-58.421,0c-5.307,0-10.62,5.316-11.505,11.505c0,0,0,0,0.885,131.877c-0.885,6.194,4.429,11.505,11.505,11.505
	c0,0,0,0,15.047,0.89c6.194-0.884,11.505-6.2,12.389-12.389c0,0,0,0-0.884-50.446C677.56,540.592,682.876,535.276,689.07,536.166z
	 M693.497,521.113c0,0,0,0-27.442-0.891c-6.188,0.885-11.499-4.42-11.505-11.499c0,0,0,0,0-26.558
	c0-7.073,5.316-12.384,11.505-11.505c0,0,0,0,26.559,0c7.072,0.006,12.383,5.315,12.383,10.621l0.006,28.325
	C705.002,514.918,699.686,520.229,693.497,521.113z"/>
<path fill="#003399" d="M776.689,609.622c0,0,0,0,74.341,0c3.542,0,7.084-3.542,7.969-7.969c0,0,0,0-0.89-69.919
	c0.878-6.195-4.427-11.506-11.512-11.506c0,0,0,0-35.398,0.006c-3.537-0.006-7.079,3.537-7.963,7.957c0,0,0,0,0.884,27.437
	c0,3.536,3.542,7.085,7.085,7.079c0,0,0,0,20.352,0.896c6.2-0.89,11.511,4.42,11.505,11.499c0,0,0,0,0.006,7.078
	c0,7.085-5.311,12.396-11.511,11.506c0,0,0,0-38.941,0c-6.194,0.884-11.511-4.433-11.505-11.511c0,0,0,0-0.884-73.456
	c0.878-6.195,6.188-11.512,12.389-12.39c0,0,0,0,57.525,0.884c5.316,0,8.853-3.536,7.969-7.963c0,0,0,0,0.895-27.436
	c-0.005-3.549-3.547-7.085-7.974-7.969c0,0,0,0-73.45,0.884c-7.085,0-12.4,5.316-11.512,11.511c0,0,0,0-0.889,131.871
	C766.068,604.306,771.379,609.616,776.689,609.622z"/>
<path fill="#003399" d="M893.52,593.686c-4.427,0.89-7.969,4.426-7.969,7.968c0,5.316,2.658,7.969,7.969,7.969c0,0,0,0,72.572,0
	c7.084,0,12.395-5.311,11.505-11.505c0,0,0,0,0.896-66.383c0-5.311-5.316-10.627-11.511-11.512c0,0,0,0-54.878,0.006
	c-6.195,0.885-11.506-4.426-11.506-11.505c0,0,0,0,0.006-26.558c0-7.073,5.311-12.384,11.5-11.505c0,0,0,0,44.257,0
	c3.536,0,7.079-3.542,7.963-7.963c-0.884-4.427-4.432-7.969-7.963-7.969c0,0,0,0-59.305,0.884
	c-6.188-0.884-11.505,4.433-11.505,11.506c0,0,0,0,0,56.641c0,7.078,5.311,12.395,11.511,11.511c0,0,0,0,27.431,0.884
	c5.316,0,11.511,4.427,11.511,11.511c0,0,0,0-0.006,35.399c-0.878,6.194-5.305,10.627-11.505,11.505
	C924.492,594.569,924.492,594.569,893.52,593.686z"/>
<path fill="#003399" d="M385.489,391.895c0.005,7.078,4.432,11.505,11.508,11.505c0,0,0,0,74.343,0c3.545,0,7.084-3.537,7.082-7.073
	c0,0,0,0,0.002-70.807c0.885-6.197-4.426-11.508-11.508-11.508c0,0,0,0-35.404,0c-3.537,0.006-7.079,3.545-7.966,7.966
	c0,0,0,0,0,26.549c0.881,4.43,4.423,7.972,7.969,7.966c0,0,0,0,19.465,0.003c7.081-0.003,12.395,5.311,12.392,12.389
	c0,0,0,0,0.003,7.079c-0.003,7.079-5.316,12.392-12.392,12.389c0,0,0,0-38.058-0.887c-7.081,0.003-11.511-4.426-11.508-11.508
	c0,0,0,0-0.884-73.459c0.884-6.197,6.194-11.505,11.508-11.508c0,0,0,0,58.415,0.006c5.313-0.003,8.855-3.542,7.966-7.966
	c0,0,0,0,0.002-26.555c-0.002-5.311-3.542-8.847-7.965-7.966c0,0,0,0-73.459-0.881c-6.197,0.884-11.51,6.195-11.508,11.505
	C385.491,259.133,385.491,259.133,385.489,391.895z"/>
<path fill="#003399" d="M505.852,391.903c-0.884,6.198,4.427,11.507,11.505,11.502c0,0,0,0,15.934,0.005
	c5.313-0.005,10.621-5.31,11.508-11.507c0,0,0,0,0-19.471c-0.884-6.195-11.505-11.508-11.505-11.508
	c-7.082,0.003-12.395-5.31-12.392-12.392c0,0,0,0-0.002-10.618c0.002-5.313,3.542-8.85,7.968-7.971c0,0,0,0,46.029,0
	c2.658-0.885,5.313,1.773,7.084,3.542c0,0,0,0,12.386,19.471v1.765c0.003,3.545-2.652,6.198-6.195,6.198c0,0,0,0-23.013,0
	c-5.311-0.003-10.624,5.308-11.508,11.508c0,0,0,0,0.003,19.465c0.881,6.2,6.192,11.508,11.505,11.508c0,0,0,0,37.173,0
	c7.076,0,12.386-5.311,11.5-11.5c0,0,0,0-0.003-30.091c0-3.54,0.005-7.084-0.882-9.74c-64.62-98.24-65.502-99.125-65.502-99.125
	c-2.652-2.652-5.31-5.308-9.733-4.423c0,0,0,0-20.355-0.884c-6.195,0.882-11.508,6.192-12.392,12.393
	C504.965,260.029,504.965,260.029,505.852,391.903z M528.865,264.447c0,0,0,0,2.655-0.887c2.658,0.884,5.313,1.763,7.084,3.537
	c0,0,0,0,24.781,38.947c0,0,0.887,0.887,0.881,2.655c-0.887,2.655-3.536,5.302-6.194,6.195c0,0,0,0-25.668-0.884
	c-7.076-0.003-11.502-4.429-11.505-11.505c0,0,0,0,0.002-30.097C520.896,267.102,524.441,263.557,528.865,264.447z"/>
<path fill="#003399" d="M652.775,360.032c-6.188,0.878-11.502,6.192-12.389,12.389c0,0,0,0,0.003,19.468
	c0.884,6.197,6.197,11.511,11.508,11.505c0,0,0,0,46.015,0.006c7.09,0.006,12.4-5.308,11.505-11.511c0,0,0,0,0-19.474
	c0.884-6.191-4.427-11.505-11.505-11.502c0,0,0,0-3.537-0.006c-5.316,0-10.627-5.311-11.505-11.508c0,0,0,0,0-93.808
	c0.006-3.542-7.079-7.079-7.079-7.079c-4.432-0.884-7.968,2.655-7.968,7.966c0,0,0,0,0,92.048c0,7.076-5.311,12.387-12.39,12.39
	C655.434,360.916,655.434,360.916,652.775,360.032z"/>
<path fill="#003399" d="M806.79,264.444c4.421-0.89,7.957-4.429,7.968-7.968c0.885-4.427-2.652-7.963-7.968-7.966
	c0,0,0,0-58.415,0.003c-6.194,0.884-12.389,5.311-11.511,11.508c0,0,0,0,0.006,58.409c-0.884,6.197,5.311,10.624,11.511,11.505
	c0,0,0,0,26.547,0c7.072,0,12.389,5.316,11.505,11.508c0,0,0,0,0.884,34.521c-0.006,7.079-5.311,12.389-12.389,12.392
	c0,0,0,0-30.095-0.003c-4.427-0.881-7.963,2.658-7.969,7.968c-0.006,3.537,3.536,7.079,7.085,7.085c0,0,0,0,74.34,0
	c6.194,0.878,10.627-5.319,11.517-11.505c0,0,0,0,0-65.499c0-7.082-5.311-12.389-11.499-11.505c0,0,0,0-54.885,0.003
	c-6.188-0.881-11.505-6.197-11.505-11.508c0,0,0,0,0-28.32c0-5.313,5.311-10.624,11.505-11.508
	C763.422,263.563,763.422,263.563,806.79,264.444z"/>
<path fill="#003399" d="M916.529,360.034c-6.194,0.885-11.505,6.198-12.395,12.393c0,0,0,0,0.006,19.468
	c0.878,6.194,6.194,11.505,12.389,12.395c0,0,0,0,36.283-0.89c7.084,0,12.395-5.311,11.511-11.497c0,0,0,0,0.884-30.976
	c-0.89-2.655-0.884-6.195-1.773-8.853c-64.609-98.243-65.488-99.127-65.488-99.127c-1.773-3.542-5.311-5.308-9.736-4.423
	c0,0,0,0-20.357-0.89c-6.195,0.89-11.505,6.198-11.505,11.508c0,0,0,0,0,132.764c0,7.073,5.31,12.383,11.499,11.5c0,0,0,0,15.938,0
	c6.188,0.884,11.504-4.433,11.504-11.508c0,0,0,0,0-19.471c0-7.076-11.51-11.508-11.51-11.508c-7.073,0.002-12.39-5.308-11.5-11.502
	c0,0,0,0,0-12.389c-0.011-3.542,3.537-7.087,7.079-7.079c0,0,0,0,46.02-0.005c3.542,0,5.316,1.771,7.085,3.542
	c0,0,0,0,12.395,19.471c0,0,0.879,0.884,0.879,2.649c-0.885,2.658-3.543,5.313-5.311,5.313
	C940.424,360.919,940.424,360.919,916.529,360.034z M909.445,314.003c0,0,0,0-26.553-0.003c-5.311,0.003-10.621-5.308-11.499-11.505
	c0,0,0,0,0.878-30.976c-0.884-4.426,2.658-7.966,7.969-7.966c0,0,0,0,2.652,0.887c2.658-0.881,4.427,0.887,6.2,2.658
	c0,0,0,0,24.784,38.944c0.885,0.887,0.885,0.887,0.885,2.649C914.756,312.235,912.104,314.89,909.445,314.003z"/>
<path fill="#003399" d="M1117.447,424.641c-24.783-8.857-36.289-34.521-41.605-48.681c-1.768-3.539-5.315-3.542-7.084,0.003
	c-4.42,15.05-15.047,39.825-38.941,51.33c-1.773,1.774-1.768,5.311,0.885,6.201c23.899,9.736,36.289,34.521,41.594,50.44
	c0.895,2.657,5.311,1.773,6.199-0.879c4.428-15.047,15.932-40.715,39.832-52.22C1120.094,429.067,1119.216,426.403,1117.447,424.641
	z"/>
<path fill="#003399" d="M251.835,267.099c-2.652,0.887-2.652,4.42,0.003,5.308c24.781,8.85,38.941,33.636,45.139,46.907
	c1.774,3.54,5.313,3.545,6.194,0.887c3.542-15.934,13.276-41.602,36.295-55.765c2.649-0.882,1.769-3.537-0.89-4.421
	c-24.778-8.855-38.058-32.75-44.258-47.797c-0.875-2.652-5.302-1.763-6.191,0.887C284.585,229.039,274.845,254.713,251.835,267.099z
	"/>
</svg>
