<svg enable-background="new 0 0 76 9.845" height="9.845" viewBox="0 0 76 9.845" width="76" xmlns="http://www.w3.org/2000/svg"><g fill="#039"><path d="m42.731 8.77s0 0-1.752.051c-.25-.051-.451.148-.451.449 0 .201.201.4.451.451 0 0 0 0 4.156-.051.4 0 .65-.25.651-.65 0 0 0 0 0-3.705 0-.401-.301-.701-.651-.652 0 0 0 0-3.055-.049-.4 0-.7-.301-.65-.65 0 0 0 0 0-1.502-.05-.352.25-.652.65-.652 0 0 0 0 2.454-.049.25.049.45-.15.4-.4.05-.252-.15-.451-.45-.451 0 0 0 0-3.305 0-.352.051-.602.301-.651.65 0 0 0 0-.001 3.305.051.351.301.602.652.651 0 0 0 0 1.502-.001.4.001.7.302.65.652 0 0 0 0 .051 1.952.001.401-.299.702-.651.651z"/><path d="m53.497 9.02s0 0-.051-1.752c.051-.15 0-.301-.049-.451-3.705-5.607-3.756-5.658-3.756-5.658-.05-.15-.301-.3-.5-.3 0 0 0 0-1.152.05-.4 0-.701.301-.65.65 0 0 0 0-.051 7.461.051.35.352.65.65.65h.902c.4 0 .65-.25.65-.65 0 0 0 0 0-1.102 0-.4-.65-.65-.65-.65-.4 0-.701-.301-.65-.651 0 0 0 0 0-.7-.001-.201.199-.401.4-.4h2.604c.199 0 .3.1.4.199 0 0 0 0 .701 1.102.049.051.049.051.049.15-.049.15-.149.25-.3.301 0 0 0 0-1.302 0-.4 0-.701.301-.65.65v1.102c-.051.352.25.65.65.65 0 0 0 0 2.053.051.351-.052.651-.35.702-.702zm-3.205-4.406s0 0-1.451.051c-.352-.051-.651-.351-.701-.701 0 0 0 0 .05-1.752 0-.201.2-.4.45-.451 0 0 0 0 .15.051.15-.051.25.049.352.15 0 0 0 0 1.451 2.152v.2c.051.15-.1.3-.301.3z"/><path d="m57.804 5.516h1.301c.4 0 .701.3.651.65 0 0 0 0 .05 3.055-.051.25.451.449.451.449.199 0 .4-.199.4-.4 0 0 0 0 0-3.705-.001-.199-.051-.35-.201-.5 0 0 0 0-.7-.701-.101-.1-.149-.25-.2-.4 0 0 0 0 0-2.404 0-.3-.25-.65-.65-.65 0 0 0 0-3.306 0-.3 0-.601.301-.651.65 0 0 0 0 .051 7.461-.051.352.25.65.65.65 0 0 0 0 .852.051.351-.051.65-.35.701-.701 0 0 0 0-.051-2.854-.001-.401.3-.702.652-.651zm.25-.851s0 0-1.553-.051c-.35.051-.65-.25-.65-.65 0 0 0 0 0-1.502 0-.4.301-.701.65-.651h1.502c.4.001.701.301.701.601v1.603c0 .298-.301.599-.65.65z"/><path d="m62.76 9.67h4.206c.199 0 .4-.199.45-.449 0 0 0 0-.05-3.956.049-.351-.251-.651-.652-.651 0 0 0 0-2.002 0-.2 0-.4.201-.451.451 0 0 0 0 .051 1.552 0 .2.2.401.4.401 0 0 0 0 1.151.05.351-.05.651.25.651.65v.401c0 .4-.301.701-.651.65 0 0 0 0-2.202 0-.352.051-.652-.25-.651-.651 0 0 0 0-.05-4.155.049-.351.35-.651.701-.701 0 0 0 0 3.254.051.301 0 .5-.201.451-.451 0 0 0 0 .05-1.553 0-.2-.2-.4-.45-.45 0 0 0 0-4.156.05-.4 0-.701.301-.65.651 0 0 0 0-.051 7.46.05.352.351.65.651.65z"/><path d="m69.368 8.77c-.25.051-.45.25-.45.451 0 .301.15.449.45.449h4.105c.4 0 .701-.299.65-.65 0 0 0 0 .051-3.755 0-.3-.301-.601-.65-.651 0 0 0 0-3.104 0-.351.051-.651-.25-.651-.65 0 0 0 0 .001-1.502 0-.4.301-.701.65-.651h2.503c.201 0 .4-.2.451-.45-.051-.25-.25-.451-.451-.451 0 0 0 0-3.354.051-.351-.051-.651.25-.651.65v3.205c0 .399.3.7.651.65 0 0 0 0 1.552.05.301 0 .651.251.651.651v2.002c-.051.352-.301.602-.651.652 0 0 0 0-1.753-.051z"/><path d="m1.211 9.194c0 .4.25.651.651.651h4.206c.201 0 .4-.2.4-.4 0 0 0 0 0-4.005.05-.352-.25-.652-.651-.652 0 0 0 0-2.002 0-.2.001-.401.201-.451.451v1.502c.05.25.25.451.451.451h1.101c.4 0 .701.301.701.701v.4s-.301.7-.701.7c0 0 0 0-2.153-.05-.4 0-.651-.251-.651-.651 0 0 0 0-.05-4.155.05-.352.351-.651.651-.651 0 0 0 0 3.305.001.3-.001.5-.201.45-.451 0 0 0 0 0-1.502 0-.301-.2-.501-.45-.451 0 0 0 0-4.156-.05-.351.05-.651.351-.651.651z"/><path d="m8.02 9.195c-.05.351.25.651.651.65 0 0 0 0 .901.001.301-.001.601-.301.651-.651 0 0 0 0 0-1.102-.05-.351-.651-.651-.651-.651-.401 0-.701-.301-.701-.701 0 0 0 0 0-.6 0-.301.2-.501.451-.451h2.604c.15-.051.3.1.4.2 0 0 0 0 .701 1.101v.101c0 .2-.15.351-.35.351 0 0 0 0-1.302 0-.301 0-.601.301-.651.65v1.102c.05.352.351.651.651.651h2.103c.4 0 .701-.301.651-.651 0 0 0 0 0-1.701 0-.201 0-.401-.05-.552-3.655-5.558-3.706-5.607-3.706-5.607-.15-.149-.3-.3-.551-.25 0 0 0 0-1.151-.05-.35.05-.651.35-.701.701 0-.001 0-.001.05 7.459zm1.302-7.21s0 0 .15-.051c.15.05.3.1.401.2 0 0 0 0 1.402 2.203 0 0 .05.05.05.15-.05.149-.2.3-.35.351 0 0 0 0-1.453-.051-.4 0-.65-.25-.65-.65 0 0 0 0 0-1.703-.001-.3.2-.5.45-.449z"/><path d="m16.332 7.391c-.351.051-.651.351-.701.701v1.102c.05.351.35.651.651.65 0 0 0 0 2.603.001.401 0 .701-.3.651-.651 0 0 0 0 0-1.102.05-.351-.25-.65-.651-.65 0 0 0 0-.2-.001-.301 0-.601-.3-.651-.651 0 0 0 0 0-5.307 0-.2-.4-.4-.4-.4-.251-.05-.451.15-.451.451v5.207c0 .4-.3.701-.701.701 0 0 0 0-.15-.051z"/><path d="m25.044 1.984c.25-.05.45-.251.451-.45.05-.251-.15-.451-.451-.451 0 0 0 0-3.304 0-.351.051-.701.301-.651.651v3.304c-.05.352.301.602.651.651h1.502c.4 0 .701.301.651.651 0 0 0 0 .05 1.953 0 .4-.3.7-.701.7 0 0 0 0-1.703 0-.25-.05-.451.15-.451.45 0 .201.2.401.4.401h4.206c.35.05.601-.301.651-.651 0 0 0 0 0-3.705 0-.4-.301-.701-.65-.65 0 0 0 0-3.105 0-.35-.05-.65-.351-.65-.65 0 0 0 0 0-1.603 0-.301.3-.601.65-.651.001 0 .001 0 2.454.05z"/><path d="m31.253 7.391c-.351.051-.651.352-.701.701v1.102c.05.351.351.651.701.701 0 0 0 0 2.052-.05.401 0 .701-.301.651-.65 0 0 0 0 .05-1.753-.05-.15-.05-.35-.101-.5-3.655-5.559-3.705-5.607-3.705-5.607-.1-.201-.3-.301-.551-.251 0 0 0 0-1.151-.05-.351.05-.651.35-.651.65v7.511c0 .399.3.7.65.65h.901c.35.05.651-.251.651-.651 0 0 0 0 0-1.102 0-.4-.651-.65-.651-.65-.4 0-.701-.301-.65-.65 0 0 0 0 0-.701-.001-.2.2-.4.4-.4h2.603c.2 0 .301.1.401.2 0 0 0 0 .701 1.101 0 0 .05.051.05.15-.05.15-.201.301-.3.301.001-.001.001-.001-1.35-.052zm-.401-2.603s0 0-1.502 0c-.3 0-.601-.301-.65-.65 0 0 0 0 .05-1.753-.05-.251.15-.45.451-.45 0 0 0 0 .15.05.15-.05.25.05.351.15 0 0 0 0 1.402 2.203.05.05.05.05.05.149-.002.201-.152.351-.302.301z"/></g></svg>