<?xml version="1.0" encoding="utf-8"?>
<!-- Generator: Adobe Illustrator 16.0.0, SVG Export Plug-In . SVG Version: 6.00 Build 0)  -->
<!DOCTYPE svg PUBLIC "-//W3C//DTD SVG 1.1//EN" "http://www.w3.org/Graphics/SVG/1.1/DTD/svg11.dtd">
<svg version="1.1" id="Layer_1" xmlns="http://www.w3.org/2000/svg" xmlns:xlink="http://www.w3.org/1999/xlink" x="0px" y="0px"
	 width="76px" height="9.845px" viewBox="0 0 76 9.845" enable-background="new 0 0 76 9.845" xml:space="preserve">
<path fill="#003399" d="M42.731,8.77c0,0,0,0-1.752,0.051c-0.25-0.051-0.451,0.148-0.451,0.449c0,0.201,0.201,0.4,0.451,0.451
	c0,0,0,0,4.156-0.051c0.4,0,0.65-0.25,0.651-0.65c0,0,0,0,0-3.705c0-0.401-0.301-0.701-0.651-0.652c0,0,0,0-3.055-0.049
	c-0.4,0-0.7-0.301-0.65-0.65c0,0,0,0,0-1.502c-0.05-0.352,0.25-0.652,0.65-0.652c0,0,0,0,2.454-0.049c0.25,0.049,0.45-0.15,0.4-0.4
	c0.05-0.252-0.15-0.451-0.45-0.451c0,0,0,0-3.305,0c-0.352,0.051-0.602,0.301-0.651,0.65c0,0,0,0-0.001,3.305
	c0.051,0.351,0.301,0.602,0.652,0.651c0,0,0,0,1.502-0.001c0.4,0.001,0.7,0.302,0.65,0.652c0,0,0,0,0.051,1.952
	C43.383,8.52,43.083,8.821,42.731,8.77z"/>
<path fill="#003399" d="M53.497,9.02c0,0,0,0-0.051-1.752c0.051-0.15,0-0.301-0.049-0.451c-3.705-5.607-3.756-5.658-3.756-5.658
	c-0.05-0.15-0.301-0.3-0.5-0.3c0,0,0,0-1.152,0.05c-0.4,0-0.701,0.301-0.65,0.65c0,0,0,0-0.051,7.461
	c0.051,0.35,0.352,0.65,0.65,0.65c0,0,0,0,0.902,0c0.4,0,0.65-0.25,0.65-0.65c0,0,0,0,0-1.102c0-0.4-0.65-0.65-0.65-0.65
	c-0.4,0-0.701-0.301-0.65-0.651c0,0,0,0,0-0.7c-0.001-0.201,0.199-0.401,0.4-0.4c0,0,0,0,2.604,0c0.199,0,0.3,0.1,0.4,0.199
	c0,0,0,0,0.701,1.102c0.049,0.051,0.049,0.051,0.049,0.15c-0.049,0.15-0.149,0.25-0.3,0.301c0,0,0,0-1.302,0
	c-0.4,0-0.701,0.301-0.65,0.65c0,0,0,0,0,1.102c-0.051,0.352,0.25,0.65,0.65,0.65c0,0,0,0,2.053,0.051
	C53.146,9.67,53.446,9.372,53.497,9.02z M50.292,4.614c0,0,0,0-1.451,0.051c-0.352-0.051-0.651-0.351-0.701-0.701
	c0,0,0,0,0.05-1.752c0-0.201,0.2-0.4,0.45-0.451c0,0,0,0,0.15,0.051c0.15-0.051,0.25,0.049,0.352,0.15c0,0,0,0,1.451,2.152
	c0,0.1,0,0.1,0,0.2C50.644,4.464,50.493,4.614,50.292,4.614z"/>
<path fill="#003399" d="M57.804,5.516c0,0,0,0,1.301,0c0.4,0,0.701,0.3,0.651,0.65c0,0,0,0,0.05,3.055
	c-0.051,0.25,0.451,0.449,0.451,0.449c0.199,0,0.4-0.199,0.4-0.4c0,0,0,0,0-3.705c-0.001-0.199-0.051-0.35-0.201-0.5
	c0,0,0,0-0.7-0.701c-0.101-0.1-0.149-0.25-0.2-0.4c0,0,0,0,0-2.404c0-0.3-0.25-0.65-0.65-0.65c0,0,0,0-3.306,0
	c-0.3,0-0.601,0.301-0.651,0.65c0,0,0,0,0.051,7.461c-0.051,0.352,0.25,0.65,0.65,0.65c0,0,0,0,0.852,0.051
	c0.351-0.051,0.65-0.35,0.701-0.701c0,0,0,0-0.051-2.854C57.151,5.766,57.452,5.465,57.804,5.516z M58.054,4.665
	c0,0,0,0-1.553-0.051c-0.35,0.051-0.65-0.25-0.65-0.65c0,0,0,0,0-1.502c0-0.4,0.301-0.701,0.65-0.651c0,0,0,0,1.502,0
	c0.4,0.001,0.701,0.301,0.701,0.601v1.603C58.704,4.313,58.403,4.614,58.054,4.665z"/>
<path fill="#003399" d="M62.76,9.67c0,0,0,0,4.206,0c0.199,0,0.4-0.199,0.45-0.449c0,0,0,0-0.05-3.956
	c0.049-0.351-0.251-0.651-0.652-0.651c0,0,0,0-2.002,0c-0.2,0-0.4,0.201-0.451,0.451c0,0,0,0,0.051,1.552c0,0.2,0.2,0.401,0.4,0.401
	c0,0,0,0,1.151,0.05c0.351-0.05,0.651,0.25,0.651,0.65c0,0,0,0,0,0.401c0,0.4-0.301,0.701-0.651,0.65c0,0,0,0-2.202,0
	c-0.352,0.051-0.652-0.25-0.651-0.651c0,0,0,0-0.05-4.155c0.049-0.351,0.35-0.651,0.701-0.701c0,0,0,0,3.254,0.051
	c0.301,0,0.5-0.201,0.451-0.451c0,0,0,0,0.05-1.553c0-0.2-0.2-0.4-0.45-0.45c0,0,0,0-4.156,0.05c-0.4,0-0.701,0.301-0.65,0.651
	c0,0,0,0-0.051,7.46C62.159,9.372,62.46,9.67,62.76,9.67z"/>
<path fill="#003399" d="M69.368,8.77c-0.25,0.051-0.45,0.25-0.45,0.451c0,0.301,0.15,0.449,0.45,0.449c0,0,0,0,4.105,0
	c0.4,0,0.701-0.299,0.65-0.65c0,0,0,0,0.051-3.755c0-0.3-0.301-0.601-0.65-0.651c0,0,0,0-3.104,0
	c-0.351,0.051-0.651-0.25-0.651-0.65c0,0,0,0,0.001-1.502c0-0.4,0.301-0.701,0.65-0.651c0,0,0,0,2.503,0c0.201,0,0.4-0.2,0.451-0.45
	c-0.051-0.25-0.25-0.451-0.451-0.451c0,0,0,0-3.354,0.051c-0.351-0.051-0.651,0.25-0.651,0.65c0,0,0,0,0,3.205
	c0,0.399,0.3,0.7,0.651,0.65c0,0,0,0,1.552,0.05c0.301,0,0.651,0.251,0.651,0.651c0,0,0,0,0,2.002
	c-0.051,0.352-0.301,0.602-0.651,0.652C71.121,8.821,71.121,8.821,69.368,8.77z"/>
<path fill="#003399" d="M1.211,9.194c0,0.4,0.25,0.651,0.651,0.651c0,0,0,0,4.206,0c0.201,0,0.4-0.2,0.4-0.4c0,0,0,0,0-4.005
	c0.05-0.352-0.25-0.652-0.651-0.652c0,0,0,0-2.002,0c-0.2,0.001-0.401,0.201-0.451,0.451c0,0,0,0,0,1.502
	c0.05,0.25,0.25,0.451,0.451,0.451c0,0,0,0,1.101,0c0.4,0,0.701,0.301,0.701,0.701c0,0,0,0,0,0.4s-0.301,0.7-0.701,0.7
	c0,0,0,0-2.153-0.05c-0.4,0-0.651-0.251-0.651-0.651c0,0,0,0-0.05-4.155c0.05-0.352,0.351-0.651,0.651-0.651c0,0,0,0,3.305,0.001
	c0.3-0.001,0.5-0.201,0.45-0.451c0,0,0,0,0-1.502c0-0.301-0.2-0.501-0.45-0.451c0,0,0,0-4.156-0.05
	c-0.351,0.05-0.651,0.351-0.651,0.651C1.211,1.684,1.211,1.684,1.211,9.194z"/>
<path fill="#003399" d="M8.02,9.195c-0.05,0.351,0.25,0.651,0.651,0.65c0,0,0,0,0.901,0.001c0.301-0.001,0.601-0.301,0.651-0.651
	c0,0,0,0,0-1.102c-0.05-0.351-0.651-0.651-0.651-0.651c-0.401,0-0.701-0.301-0.701-0.701c0,0,0,0,0-0.6
	c0-0.301,0.2-0.501,0.451-0.451c0,0,0,0,2.604,0c0.15-0.051,0.3,0.1,0.4,0.2c0,0,0,0,0.701,1.101v0.101c0,0.2-0.15,0.351-0.35,0.351
	c0,0,0,0-1.302,0c-0.301,0-0.601,0.301-0.651,0.65c0,0,0,0,0,1.102c0.05,0.352,0.351,0.651,0.651,0.651c0,0,0,0,2.103,0
	c0.4,0,0.701-0.301,0.651-0.651c0,0,0,0,0-1.701c0-0.201,0-0.401-0.05-0.552c-3.655-5.558-3.706-5.607-3.706-5.607
	c-0.15-0.149-0.3-0.3-0.551-0.25c0,0,0,0-1.151-0.05c-0.35,0.05-0.651,0.35-0.701,0.701C7.97,1.735,7.97,1.735,8.02,9.195z
	 M9.322,1.985c0,0,0,0,0.15-0.051c0.15,0.05,0.3,0.1,0.401,0.2c0,0,0,0,1.402,2.203c0,0,0.05,0.05,0.05,0.15
	c-0.05,0.149-0.2,0.3-0.35,0.351c0,0,0,0-1.453-0.051c-0.4,0-0.65-0.25-0.65-0.65c0,0,0,0,0-1.703
	C8.871,2.134,9.072,1.934,9.322,1.985z"/>
<path fill="#003399" d="M16.332,7.391c-0.351,0.051-0.651,0.351-0.701,0.701c0,0,0,0,0,1.102c0.05,0.351,0.35,0.651,0.651,0.65
	c0,0,0,0,2.603,0.001c0.401,0,0.701-0.3,0.651-0.651c0,0,0,0,0-1.102c0.05-0.351-0.25-0.65-0.651-0.65c0,0,0,0-0.2-0.001
	c-0.301,0-0.601-0.3-0.651-0.651c0,0,0,0,0-5.307c0-0.2-0.4-0.4-0.4-0.4c-0.251-0.05-0.451,0.15-0.451,0.451c0,0,0,0,0,5.207
	c0,0.4-0.3,0.701-0.701,0.701C16.482,7.442,16.482,7.442,16.332,7.391z"/>
<path fill="#003399" d="M25.044,1.984c0.25-0.05,0.45-0.251,0.451-0.45c0.05-0.251-0.15-0.451-0.451-0.451c0,0,0,0-3.304,0
	c-0.351,0.051-0.701,0.301-0.651,0.651c0,0,0,0,0,3.304c-0.05,0.352,0.301,0.602,0.651,0.651c0,0,0,0,1.502,0
	c0.4,0,0.701,0.301,0.651,0.651c0,0,0,0,0.05,1.953c0,0.4-0.3,0.7-0.701,0.7c0,0,0,0-1.703,0c-0.25-0.05-0.451,0.15-0.451,0.45
	c0,0.201,0.2,0.401,0.4,0.401c0,0,0,0,4.206,0c0.35,0.05,0.601-0.301,0.651-0.651c0,0,0,0,0-3.705c0-0.4-0.301-0.701-0.65-0.65
	c0,0,0,0-3.105,0c-0.35-0.05-0.65-0.351-0.65-0.65c0,0,0,0,0-1.603c0-0.301,0.3-0.601,0.65-0.651
	C22.591,1.934,22.591,1.934,25.044,1.984z"/>
<path fill="#003399" d="M31.253,7.391c-0.351,0.051-0.651,0.352-0.701,0.701c0,0,0,0,0,1.102c0.05,0.351,0.351,0.651,0.701,0.701
	c0,0,0,0,2.052-0.05c0.401,0,0.701-0.301,0.651-0.65c0,0,0,0,0.05-1.753c-0.05-0.15-0.05-0.35-0.101-0.5
	c-3.655-5.559-3.705-5.607-3.705-5.607c-0.1-0.201-0.3-0.301-0.551-0.251c0,0,0,0-1.151-0.05c-0.351,0.05-0.651,0.35-0.651,0.65
	c0,0,0,0,0,7.511c0,0.399,0.3,0.7,0.65,0.65c0,0,0,0,0.901,0c0.35,0.05,0.651-0.251,0.651-0.651c0,0,0,0,0-1.102
	c0-0.4-0.651-0.65-0.651-0.65c-0.4,0-0.701-0.301-0.65-0.65c0,0,0,0,0-0.701c-0.001-0.2,0.2-0.4,0.4-0.4c0,0,0,0,2.603,0
	c0.2,0,0.301,0.1,0.401,0.2c0,0,0,0,0.701,1.101c0,0,0.05,0.051,0.05,0.15c-0.05,0.15-0.201,0.301-0.3,0.301
	C32.604,7.442,32.604,7.442,31.253,7.391z M30.852,4.788c0,0,0,0-1.502,0c-0.3,0-0.601-0.301-0.65-0.65c0,0,0,0,0.05-1.753
	c-0.05-0.251,0.15-0.45,0.451-0.45c0,0,0,0,0.15,0.05c0.15-0.05,0.25,0.05,0.351,0.15c0,0,0,0,1.402,2.203
	c0.05,0.05,0.05,0.05,0.05,0.149C31.152,4.688,31.002,4.838,30.852,4.788z"/>
</svg>
