<?xml version="1.0" encoding="utf-8"?>
<!-- Generator: Adobe Illustrator 16.0.0, SVG Export Plug-In . SVG Version: 6.00 Build 0)  -->
<!DOCTYPE svg PUBLIC "-//W3C//DTD SVG 1.1//EN" "http://www.w3.org/Graphics/SVG/1.1/DTD/svg11.dtd">
<svg version="1.1" id="Layer_1" xmlns="http://www.w3.org/2000/svg" xmlns:xlink="http://www.w3.org/1999/xlink" x="0px" y="0px"
	 width="400px" height="400px" viewBox="0 0 400 400" enable-background="new 0 0 400 400" xml:space="preserve">
<path fill="#003399" d="M398.445,216.866v-33.328l-47.099-8.268c-1.646-10.088-4.309-19.838-7.825-29.165l36.639-30.719
	l-16.633-28.844l-44.938,16.376c-6.401-7.799-13.565-14.967-21.368-21.37l16.41-44.903l-28.847-16.663l-30.72,36.667
	c-9.34-3.52-19.123-6.145-29.228-7.793l0.033-0.032l-8.267-47.097h-33.298l-8.271,47.097l0.032,0.032
	c-10.107,1.653-19.888,4.299-29.227,7.822V56.65l-30.689-36.667L86.313,36.646l16.378,44.903l0.063,0.031
	c-7.819,6.419-14.989,13.612-21.403,21.435l-0.032-0.095L36.415,86.543l-16.663,28.844l36.667,30.719
	c-3.521,9.334-6.144,19.098-7.793,29.195l-0.03-0.031l-47.1,8.268v33.328l47.1,8.267l0.03-0.029
	c1.649,10.098,4.271,19.861,7.793,29.194l-36.667,30.72l16.663,28.844l44.905-16.375l0.032-0.101
	c6.414,7.825,13.584,15.019,21.403,21.437l-0.063,0.031l-16.378,44.905l28.842,16.661l30.69-36.667v-0.032
	c9.337,3.524,19.117,6.174,29.226,7.825l-0.032,0.032l8.271,47.1h33.298l8.267-47.1l-0.033-0.032
	c10.104-1.646,19.888-4.271,29.228-7.793l30.72,36.667l28.847-16.661l-16.41-44.905c7.803-6.4,14.967-13.568,21.368-21.367
	l44.938,16.375l16.633-28.844l-36.639-30.72c3.524-9.333,6.179-19.098,7.825-29.194L398.445,216.866z M199.972,97.485
	c56.729,0,102.717,45.989,102.717,102.717c0,20.603-6.066,39.78-16.511,55.86c-0.478-1.285-1.56-2.15-3.796-2.254
	c-1.813-0.08-1.878-1.244-1.836-2.619c0.06-2.043,0.203-4.104-0.02-6.125c-0.188-1.746,0.419-4.056-2.3-4.678
	c-0.29-0.064-0.706-0.725-0.639-1.012c0.776-3.289-0.935-6.291-1.521-9.297c-1.086-5.622-0.845-11.27-1.604-16.852
	c-0.052-0.361-0.438-0.674-0.664-0.996c-1.475,0.597-1.12,1.811-1.182,2.822c-0.273,4.471-0.873,8.871-1.621,13.309
	c-0.551,3.285-2.674,6.449-1.69,10.016c0.171,0.604,0.017,1.604-0.611,1.686c-4.04,0.508-2.703,3.766-3.115,6.047
	c-0.245,1.353-0.129,2.789-0.042,4.182c0.119,2.014-0.146,3.68-2.605,3.977c-1.408,0.17-1.226,1.297-1.237,2.226
	c-0.035,3.013-0.013,6.024-0.032,9.032c-0.003,1.086,0.007,2.629-1.274,2.601c-3.223-0.069-3.136,2.14-3.656,4.233
	c0-2.098-0.136-4.211,0.021-6.299c0.605-7.852-1.888-15.506-1.424-23.347c0.104-1.801-2.189-2.438-2.249-4.127
	c-0.15-4.297,0.403-8.595-1.205-12.821c-0.618-1.629-0.747-3.74,1.199-5.272c0.979-0.771,0.035-1.418-0.883-1.767
	c-0.899-0.345-1.721-0.582-1.91,0.723c-0.168,1.169-0.248,2.352-0.304,3.529c-0.106,2.278,0.007,4.362-1.479,6.599
	c-1.148,1.714-0.565,4.567-0.799,6.909c-0.097,0.955,0.032,2.326-0.528,2.775c-2.848,2.279-2.345,5.588-2.091,8.288
	c0.403,4.287-1.646,8.111-1.355,12.378c0.213,3.102-2.867,4.995-6.114,4.824c-1.183-0.061-2.368-0.07-3.55-0.076
	c-5.593-0.025-5.705-0.025-5.548-5.451c0.097-3.39,0.706-6.996,0.496-10.121c-0.283-4.209,1.134-8.75-1.312-12.883
	c-1.279-2.156-0.642-4.861-0.548-7.312c0.171-4.396,0.09-8.617-1.582-12.897c-1.443-3.699,0.789-7.984-0.37-11.76
	c-1.721-5.599-0.352-11.382-1.704-16.984c-0.748-3.096-0.445-6.409-0.684-9.623c-0.52-6.951-0.489-13.943-0.953-20.9
	c-0.097-1.424,2.184-2.899-0.063-4.227c-0.429,0-0.859,0-1.292,0c1.103,6.015,0.148,12.003-0.477,17.954
	c-1.289,12.292-2.773,24.564-4.552,36.805c-0.409,2.806,0.479,5.969-0.622,8.598c-1.889,4.512-2.106,9.113-2.099,13.837
	c0.004,2.354,0.05,4.703-0.907,6.978c-1.858,4.418-1.414,9.099-1.362,13.736c0.02,1.782,0.928,4.27-2.133,4.452
	c-3.215,0.197-6.483,0.332-9.666-0.051c-1.875-0.224-3.779-0.835-3.959-3.841c-0.265-4.35-0.426-8.727-0.567-13.778
	c-2.866,3.46-3.117,1.875-3.342-0.722c-0.251-2.881-0.875-5.76-2.458-8.279c-0.944-1.501-1.389-3.076-1.472-4.854
	c-0.267-5.731-0.654-11.459-0.958-17.19c-0.058-1.099-0.178-2.147-0.792-3.079c-3.292-4.999-2.537-10.625-2.542-16.142
	c-0.004-0.767,1.36-1.398,0.222-2.212c-0.2-0.142-0.646-0.05-0.929,0.06c-1.239,0.481-0.486,1.389-0.471,2.178
	c0.096,4.849-0.194,10.107-2.542,13.979c-2.964,4.885-2.012,9.965-2.994,14.871c-0.888,4.437-0.321,8.998-2.87,13.279
	c-2.234,3.764-3.122,8.314-3.66,12.689c-0.458,3.708-0.056,7.516-0.061,11.281c-0.011,4.595-1.236,5.629-5.593,4.084
	c-2.624-0.934-4.056-0.145-4.597,2.229c-0.468,2.054-1.636,2.323-3.297,2.007c-3.214-0.607-5.471,0.396-6.459,3.676
	c-0.248,0.832-0.553,1.928-1.575,1.68c-1.039-0.251-0.67-1.449-0.675-2.256c-0.029-5.377,0.001-10.756-0.026-16.137
	c-0.005-1.149,0.303-2.486-1.023-3.285c-1.177,1.389,0.066,3.23-1.36,4.681c-1.018-13.295-2.005-26.249-2.995-39.202
	c-0.257-0.007-0.518-0.014-0.778-0.02c-1.498,13.285-2.993,26.57-4.573,40.567c-1.242-1.661-0.532-3.337-2.182-4.026
	c-0.668,2.982-0.223,5.957-0.396,8.893c-0.091,1.491-0.316,2.857-2.261,2.863c-1.777,0.01-3.544,0-3.86-2.387
	c-0.225-1.68-0.495-3.354-0.793-5.357c-1.039,1.305-0.655,2.422-0.752,3.447c-0.332,3.553-2.005,4.51-5.022,2.611
	c-1.104-0.691-1.708-0.132-2.606,0.182c-3.01,1.043-4.096,0.139-3.892-3.077c0.042-0.644,0.068-1.288,0.09-1.937
	c0.161-5.147,0.151-5.109-4.771-5.925c-0.607-0.101-1.199-0.174-1.794-0.198c-1.745-3.482-4.881-11.271-5.721-13.869
	c-3.32-10.104-5.124-20.896-5.124-32.109C97.255,143.474,143.242,97.485,199.972,97.485z"/>
</svg>
