<svg enable-background="new 0 0 400 400" height="400" viewBox="0 0 400 400" width="400" xmlns="http://www.w3.org/2000/svg"><path d="m398.445 216.866v-33.328l-47.099-8.268c-1.646-10.088-4.309-19.838-7.825-29.165l36.639-30.719-16.633-28.844-44.938 16.376c-6.401-7.799-13.565-14.967-21.368-21.37l16.41-44.903-28.847-16.663-30.72 36.667c-9.34-3.52-19.123-6.145-29.228-7.793l.033-.032-8.267-47.097h-33.298l-8.271 47.097.032.032c-10.107 1.653-19.888 4.299-29.227 7.822v-.028l-30.689-36.667-28.836 16.663 16.378 44.903.063.031c-7.819 6.419-14.989 13.612-21.403 21.435l-.032-.095-44.904-16.377-16.663 28.844 36.667 30.719c-3.521 9.334-6.144 19.098-7.793 29.195l-.03-.031-47.1 8.268v33.328l47.1 8.267.03-.029c1.649 10.098 4.271 19.861 7.793 29.194l-36.667 30.72 16.663 28.844 44.905-16.375.032-.101c6.414 7.825 13.584 15.019 21.403 21.437l-.063.031-16.378 44.905 28.842 16.661 30.69-36.667v-.032c9.337 3.524 19.117 6.174 29.226 7.825l-.032.032 8.271 47.1h33.298l8.267-47.1-.033-.032c10.104-1.646 19.888-4.271 29.228-7.793l30.72 36.667 28.847-16.661-16.41-44.905c7.803-6.4 14.967-13.568 21.368-21.367l44.938 16.375 16.633-28.844-36.639-30.72c3.524-9.333 6.179-19.098 7.825-29.194zm-198.473-119.381c56.729 0 102.717 45.989 102.717 102.717 0 20.603-6.066 39.78-16.511 55.86-.478-1.285-1.56-2.15-3.796-2.254-1.813-.08-1.878-1.244-1.836-2.619.06-2.043.203-4.104-.02-6.125-.188-1.746.419-4.056-2.3-4.678-.29-.064-.706-.725-.639-1.012.776-3.289-.935-6.291-1.521-9.297-1.086-5.622-.845-11.27-1.604-16.852-.052-.361-.438-.674-.664-.996-1.475.597-1.12 1.811-1.182 2.822-.273 4.471-.873 8.871-1.621 13.309-.551 3.285-2.674 6.449-1.69 10.016.171.604.017 1.604-.611 1.686-4.04.508-2.703 3.766-3.115 6.047-.245 1.353-.129 2.789-.042 4.182.119 2.014-.146 3.68-2.605 3.977-1.408.17-1.226 1.297-1.237 2.226-.035 3.013-.013 6.024-.032 9.032-.003 1.086.007 2.629-1.274 2.601-3.223-.069-3.136 2.14-3.656 4.233 0-2.098-.136-4.211.021-6.299.605-7.852-1.888-15.506-1.424-23.347.104-1.801-2.189-2.438-2.249-4.127-.15-4.297.403-8.595-1.205-12.821-.618-1.629-.747-3.74 1.199-5.272.979-.771.035-1.418-.883-1.767-.899-.345-1.721-.582-1.91.723-.168 1.169-.248 2.352-.304 3.529-.106 2.278.007 4.362-1.479 6.599-1.148 1.714-.565 4.567-.799 6.909-.097.955.032 2.326-.528 2.775-2.848 2.279-2.345 5.588-2.091 8.288.403 4.287-1.646 8.111-1.355 12.378.213 3.102-2.867 4.995-6.114 4.824-1.183-.061-2.368-.07-3.55-.076-5.593-.025-5.705-.025-5.548-5.451.097-3.39.706-6.996.496-10.121-.283-4.209 1.134-8.75-1.312-12.883-1.279-2.156-.642-4.861-.548-7.312.171-4.396.09-8.617-1.582-12.897-1.443-3.699.789-7.984-.37-11.76-1.721-5.599-.352-11.382-1.704-16.984-.748-3.096-.445-6.409-.684-9.623-.52-6.951-.489-13.943-.953-20.9-.097-1.424 2.184-2.899-.063-4.227-.429 0-.859 0-1.292 0 1.103 6.015.148 12.003-.477 17.954-1.289 12.292-2.773 24.564-4.552 36.805-.409 2.806.479 5.969-.622 8.598-1.889 4.512-2.106 9.113-2.099 13.837.004 2.354.05 4.703-.907 6.978-1.858 4.418-1.414 9.099-1.362 13.736.02 1.782.928 4.27-2.133 4.452-3.215.197-6.483.332-9.666-.051-1.875-.224-3.779-.835-3.959-3.841-.265-4.35-.426-8.727-.567-13.778-2.866 3.46-3.117 1.875-3.342-.722-.251-2.881-.875-5.76-2.458-8.279-.944-1.501-1.389-3.076-1.472-4.854-.267-5.731-.654-11.459-.958-17.19-.058-1.099-.178-2.147-.792-3.079-3.292-4.999-2.537-10.625-2.542-16.142-.004-.767 1.36-1.398.222-2.212-.2-.142-.646-.05-.929.06-1.239.481-.486 1.389-.471 2.178.096 4.849-.194 10.107-2.542 13.979-2.964 4.885-2.012 9.965-2.994 14.871-.888 4.437-.321 8.998-2.87 13.279-2.234 3.764-3.122 8.314-3.66 12.689-.458 3.708-.056 7.516-.061 11.281-.011 4.595-1.236 5.629-5.593 4.084-2.624-.934-4.056-.145-4.597 2.229-.468 2.054-1.636 2.323-3.297 2.007-3.214-.607-5.471.396-6.459 3.676-.248.832-.553 1.928-1.575 1.68-1.039-.251-.67-1.449-.675-2.256-.029-5.377.001-10.756-.026-16.137-.005-1.149.303-2.486-1.023-3.285-1.177 1.389.066 3.23-1.36 4.681-1.018-13.295-2.005-26.249-2.995-39.202-.257-.007-.518-.014-.778-.02-1.498 13.285-2.993 26.57-4.573 40.567-1.242-1.661-.532-3.337-2.182-4.026-.668 2.982-.223 5.957-.396 8.893-.091 1.491-.316 2.857-2.261 2.863-1.777.01-3.544 0-3.86-2.387-.225-1.68-.495-3.354-.793-5.357-1.039 1.305-.655 2.422-.752 3.447-.332 3.553-2.005 4.51-5.022 2.611-1.104-.691-1.708-.132-2.606.182-3.01 1.043-4.096.139-3.892-3.077.042-.644.068-1.288.09-1.937.161-5.147.151-5.109-4.771-5.925-.607-.101-1.199-.174-1.794-.198-1.745-3.482-4.881-11.271-5.721-13.869-3.32-10.104-5.124-20.896-5.124-32.109.001-56.728 45.988-102.717 102.718-102.717z" fill="#039"/></svg>