<?xml version="1.0" encoding="utf-8"?>
<!-- Generator: Adobe Illustrator 16.0.0, SVG Export Plug-In . SVG Version: 6.00 Build 0)  -->
<!DOCTYPE svg PUBLIC "-//W3C//DTD SVG 1.1//EN" "http://www.w3.org/Graphics/SVG/1.1/DTD/svg11.dtd">
<svg version="1.1" id="Capa_1" xmlns="http://www.w3.org/2000/svg" xmlns:xlink="http://www.w3.org/1999/xlink" x="0px" y="0px"
	 width="600px" height="600px" viewBox="0 0 600 600" enable-background="new 0 0 600 600" xml:space="preserve">
<g>
	<path fill="#FFFFFF" d="M483.423,101.281c-4.938,0-9.707,0.722-14.225,2.043c-2.806-8.461-7.373-18.718-14.458-29.473
		c-13.215-20.069-39.115-47.374-87.463-63.499c-69.569-23.204-122.315-3.053-154.31,17.939
		c-23.523,15.436-39.371,33.529-47.229,43.725h-8.414c-11.151,0-20.193,9.043-20.193,20.194v74.493
		c0,5.851,2.503,11.104,6.48,14.794c-2.17,9.337-3.346,19.048-3.346,29.036c0,6.206,0.467,12.301,1.319,18.274L91.843,278.56
		c-3.786,3.785-5.915,8.923-5.915,14.278v15.54c-12.915,26.707-20.182,56.638-20.182,88.246C65.744,508.766,156.917,600,268.984,600
		c112.066,0,203.236-91.234,203.236-203.376c0-36.814-9.849-71.357-27.019-101.172c0.822-2.471,1.597-4.968,2.317-7.489
		c2.017-7.052,0.049-14.64-5.135-19.828l-45.283-45.291c0.386-4.054,0.602-8.157,0.602-12.311c0-9.992-1.163-19.713-3.333-29.055
		c3.966-3.687,6.463-8.936,6.463-14.775v-63.586c5.586,1.052,10.898,3.394,15.979,7.036c11.518,8.261,17.8,20.123,17.978,20.461
		c0.447,0.881,0.956,1.713,1.514,2.505c-2.378,5.879-3.699,12.293-3.699,19.012c0,28.043,22.798,50.854,50.82,50.854
		c28.03,0,50.832-22.813,50.832-50.854C534.257,124.093,511.453,101.281,483.423,101.281z M357.313,210.533
		c0,48.751-39.624,88.414-88.329,88.414s-88.329-39.663-88.329-88.414c0-8.184,1.127-16.109,3.218-23.637h170.21
		C356.182,194.422,357.313,202.345,357.313,210.533z M360.445,112.404v34.104H177.519v-34.104H360.445z M354.497,48.664
		c11.972,3.992,22.134,8.76,30.752,13.924c-10.461,1.125-21.146,4.28-31.83,9.426H221.436
		C247.65,50.284,292.394,27.946,354.497,48.664z M126.315,301.2l29.444-29.451c6.99,12.894,16.117,24.465,26.901,34.238v135.404
		h-56.346V301.2z M431.833,396.624c0,89.87-73.053,162.987-162.849,162.987c-58.629,0-110.105-31.18-138.788-77.83h72.658
		c11.151,0,20.194-9.042,20.194-20.194v-44.761c14.777,3.783,30.17,5.828,45.934,5.828c62.193,0,119.232-31.523,153.24-81.045
		C428.427,358.802,431.833,377.315,431.833,396.624z M405.039,287.911c-21.063,56.091-75.438,94.354-136.055,94.354
		c-15.932,0-31.396-2.614-45.934-7.475v-43.966c14.276,5.479,29.756,8.509,45.934,8.509c50.608,0,94.471-29.39,115.486-71.998
		L405.039,287.911z M483.423,162.598c-5.752,0-10.431-4.695-10.431-10.467c0-5.768,4.679-10.463,10.431-10.463
		c5.76,0,10.444,4.693,10.444,10.463C493.867,157.903,489.182,162.598,483.423,162.598z"/>
	<path fill="#FFFFFF" d="M268.982,425.494c-5.312,0-10.521,2.162-14.279,5.92c-3.756,3.755-5.917,8.965-5.917,14.276
		c0,5.333,2.161,10.521,5.917,14.278c3.758,3.776,8.968,5.938,14.279,5.938c5.311,0,10.521-2.161,14.278-5.938
		c3.756-3.735,5.917-8.945,5.917-14.278c0-5.312-2.161-10.521-5.917-14.276C279.503,427.656,274.293,425.494,268.982,425.494z"/>
	<path fill="#FFFFFF" d="M268.982,264.305c5.311,0,10.521-2.161,14.278-5.919c3.756-3.756,5.917-8.966,5.917-14.277
		c0-5.311-2.161-10.521-5.917-14.278c-3.758-3.758-8.968-5.917-14.278-5.917c-5.312,0-10.521,2.159-14.279,5.917
		c-3.756,3.758-5.917,8.968-5.917,14.278c0,5.312,2.161,10.521,5.917,14.277C258.461,262.144,263.673,264.305,268.982,264.305z"/>
	<path fill="#FFFFFF" d="M230.451,226.579c3.452,0,6.846-1.412,9.29-3.856c2.445-2.424,3.837-5.818,3.837-9.271
		s-1.392-6.845-3.837-9.289c-2.444-2.442-5.838-3.838-9.29-3.838c-3.453,0-6.827,1.394-9.27,3.838
		c-2.444,2.444-3.858,5.837-3.858,9.289s1.414,6.826,3.858,9.271C223.627,225.167,226.998,226.579,230.451,226.579z"/>
	<path fill="#FFFFFF" d="M307.495,226.579c3.453,0,6.845-1.412,9.289-3.856c2.444-2.424,3.839-5.818,3.839-9.271
		c0-3.473-1.395-6.845-3.839-9.289c-2.442-2.442-5.834-3.838-9.289-3.838c-3.452,0-6.826,1.394-9.269,3.838
		c-2.444,2.444-3.856,5.816-3.856,9.289c0,3.452,1.414,6.847,3.856,9.271C300.669,225.167,304.041,226.579,307.495,226.579z"/>
</g>
</svg>
