<svg enable-background="new 0 0 737.008 787.156" height="787.156" viewBox="0 0 737.008 787.156" width="737.008" xmlns="http://www.w3.org/2000/svg"><g fill="#039"><path d="m423.127 64.26h-18.94c-1.099 0-2-.9-2-2 0-1.101.901-1.999 2-1.999h7.946c1.649 0 2.998-1.299 2.998-2.948v-9.045c0-1.649-1.349-2.948-2.998-2.948l-6.948-.05c-1.647 0-2.998-1.301-2.998-2.95v-14.943c0-1.65 1.351-2.949 2.998-2.949h15.144c1.099 0 2 .85 2 1.949s-.901 2-2 2h-11.195c-1.649 0-2.998 1.349-2.998 2.998v6.947c0 1.649 1.349 2.998 2.998 2.998l13.994.001c1.651 0 2.949 1.349 2.949 2.998v16.942c-.001 1.65-1.299 2.999-2.95 2.999z"/><path d="m457.962 64.26h-9.495c-1.647 0-2.998-1.349-2.998-2.998v-4.999c0-1.65 1.349-2.999 2.998-2.999h5.95c.798 0 1.497-.65 1.497-1.501 0-.199-.049-.448-.148-.649-3.2-4.746-3.249-4.847-3.249-4.847-.4-.6-1-.999-1.749-.999h-11.796c-1.1 0-1.998.899-1.998 1.998v2.999c0 1.649 1.35 2.998 2.998 2.998 0 0 2.998 1.349 2.998 2.999v4.999c0 1.649-1.349 2.998-2.998 2.998h-3.999c-1.648 0-2.998-1.349-2.998-2.998v-33.984c0-1.65 1.35-2.999 3-2.999h5.297c1.05 0 1.948.499 2.448 1.299 0 0 .15.199 16.844 25.588.248.7.399 1.449.399 2.248v7.847c0 1.651-1.352 3-3.001 3zm-10.095-25.189-6.496-9.846c-.349-.55-.95-.9-1.648-.9h-.75c-1.101 0-1.999.9-1.999 2v7.946c0 1.649 1.299 2.998 2.998 2.998h6.547c.8 0 1.499-.7 1.5-1.498-.001-.251-.052-.5-.152-.7z"/><path d="m491.748 64.26s-1.997-.9-1.997-2v-13.943c0-1.65-1.3-2.999-2.948-2.999h-5.997c-1.65 0-2.999 1.349-3.001 2.999v12.943c.002 1.65-1.298 2.999-2.948 2.999h-3.996c-1.649 0-3-1.349-2.998-2.999v-33.833c-.002-1.65 1.349-2.999 2.998-2.999h14.941c1.65 0 2.948 1.349 2.948 2.999v10.694c0 .801.352 1.55.901 2.1l3.197 3.248c.551.549.9 1.3.9 2.099v16.691c.001 1.1-.899 2.001-2 2.001zm-6.946-32.885c0-1.649-1.349-2.948-2.998-2.948h-6.947c-1.646 0-2.998 1.299-2.998 2.948v6.997c0 1.648 1.352 2.998 2.998 2.998h6.947c1.649 0 2.998-1.35 2.998-2.998z"/><path d="m522.389 64.26h-18.993c-1.647 0-2.998-1.349-2.998-2.999v-33.984c0-1.65 1.351-2.999 2.998-2.999h18.993c1.099 0 1.997.899 1.997 1.999v6.996c0 1.1-.898 1.999-1.997 1.999h-14.995c-1.649 0-2.998 1.351-2.998 2.999v18.992c0 1.649 1.349 2.998 2.998 2.998h9.996c1.649-.05 2.998-1.349 2.998-2.998v-2.049c0-1.649-1.349-2.998-2.998-2.998h-5.098c-1.099 0-1.999-.9-1.999-2v-6.997c0-1.099.9-1.998 1.999-1.998h9.096c1.648 0 2.998 1.349 2.998 2.998v18.041c0 1.099-.899 2-1.997 2z"/><path d="m552.225 64.26h-18.941c-1.099 0-1.999-.9-1.999-2s.9-1.999 1.999-1.999h7.947c1.649 0 2.998-1.299 2.998-2.948v-9.045c0-1.649-1.349-2.949-2.998-2.949l-6.946-.05c-1.651 0-3-1.301-3-2.95v-14.942c0-1.65 1.349-2.949 3-2.949h15.142c1.101 0 1.999.85 1.999 1.949s-.898 2-1.999 2h-11.193c-1.649 0-2.998 1.349-2.998 2.998v6.947c0 1.649 1.349 2.998 2.998 2.998h13.992c1.647 0 2.949 1.349 2.949 2.998v16.942c-.001 1.651-1.299 3-2.95 3z"/><path d="m240.956 64.26h-18.991c-1.651 0-3-1.349-3-2.998v-33.986c0-1.649 1.349-2.999 3-2.999h18.991c1.099 0 1.999.9 1.999 2v6.996c0 1.1-.9 2-1.999 2h-14.993c-1.649 0-2.998 1.351-2.998 2.998v18.99c0 1.65 1.349 3 2.998 3h9.995c1.651-.05 3-1.35 3-3v-2.048c0-1.65-1.349-2.999-3-2.999h-5.098c-1.099 0-1.997-.898-1.997-1.998v-6.999c0-1.098.898-1.999 1.997-1.999h9.097c1.649 0 2.998 1.349 2.998 2.999v18.043c0 1.1-.9 2-1.999 2z"/><path d="m274.841 64.26h-9.494c-1.651 0-3-1.349-3-2.998v-4.999c0-1.65 1.349-2.999 3-2.999h5.945c.802 0 1.5-.649 1.5-1.5 0-.199-.049-.448-.15-.649-3.199-4.748-3.248-4.848-3.248-4.848-.402-.6-1.001-1-1.75-1h-11.793c-1.101 0-2 .9-2 2l.002 2.999c0 1.647 1.349 2.998 2.998 2.998 0 0 2.998 1.349 2.998 2.999v4.999c0 1.649-1.349 2.998-2.998 2.998h-3.999c-1.649 0-2.998-1.349-2.998-2.998v-33.986c0-1.649 1.349-2.999 2.998-2.999h5.299c1.05 0 1.948.5 2.448 1.301 0 0 .15.199 16.843 25.586.249.701.4 1.451.4 2.25v7.848c0 1.649-1.352 2.998-3.001 2.998zm-10.095-25.188-6.496-9.848c-.351-.55-.951-.898-1.651-.898h-.748c-1.101 0-2 .898-1.999 2l-.002 7.946c.002 1.649 1.3 2.998 3 2.998h6.546c.8 0 1.499-.699 1.499-1.498.001-.252-.049-.501-.149-.7z"/><path d="m299.481 64.26h-11.744c-1.647 0-2.998-1.349-2.998-2.998v-4.999c0-1.65 1.351-2.999 2.998-2.999h.851c1.649 0 2.998-1.351 2.998-2.998v-23.989c0-1.1.9-2 1.999-2 0 0 1.999.9 1.999 2v23.989c0 1.647 1.351 2.998 3 2.998h.9c1.648 0 2.998 1.349 2.998 2.999v4.999c-.001 1.649-1.351 2.998-3.001 2.998z"/><path d="m330.319 64.26h-18.942c-1.097 0-1.999-.9-1.999-2 0-1.101.901-1.999 1.999-1.999h7.947c1.649 0 2.998-1.299 2.998-2.948v-9.047c0-1.649-1.349-2.948-2.998-2.948l-6.948-.05c-1.649 0-2.998-1.3-2.998-2.949v-14.942c0-1.649 1.349-2.95 2.998-2.95h15.144c1.101 0 2 .85 2 1.95s-.9 1.999-2 1.999h-11.194c-1.65 0-3 1.349-3 2.998v6.947c0 1.649 1.349 2.999 3 2.999h13.993c1.649 0 2.949 1.348 2.949 2.998v16.944c0 1.649-1.3 2.998-2.949 2.998z"/><path d="m365.154 64.26h-9.496c-1.649 0-2.998-1.349-2.998-2.998v-4.999c0-1.65 1.349-2.999 2.998-2.999h5.947c.8 0 1.5-.649 1.5-1.5 0-.199-.05-.448-.15-.649-3.199-4.748-3.249-4.848-3.249-4.848-.4-.6-1-1-1.749-1h-11.794c-1.099 0-1.999.9-1.999 2v2.999c0 1.647 1.351 2.998 3 2.998 0 0 2.998 1.349 2.998 2.999v4.999c0 1.649-1.351 2.998-2.998 2.998h-3.999c-1.649 0-2.998-1.349-2.998-2.998v-33.986c0-1.649 1.349-2.999 2.998-2.999h5.297c1.05 0 1.95.5 2.45 1.301 0 0 .148.199 16.842 25.586.25.701.4 1.451.398 2.25v7.848c.001 1.649-1.349 2.998-2.998 2.998zm-10.095-25.188-6.498-9.848c-.351-.55-.95-.898-1.649-.898h-.75c-1.099 0-1.999.898-1.999 2v7.946c0 1.649 1.3 2.998 3 2.998h6.546c.799 0 1.498-.699 1.498-1.498.001-.252-.048-.501-.148-.7z"/><path d="m82.159 120.897c-1.744 5.434-5.837 14.444-14.495 18.307-.921.411-.921 1.555 0 1.966 8.658 3.863 12.751 12.873 14.495 18.307.33 1.029 1.934 1.029 2.264 0 1.744-5.434 5.837-14.444 14.495-18.307.921-.411.921-1.555 0-1.966-8.658-3.863-12.751-12.873-14.495-18.307-.33-1.028-1.934-1.028-2.264 0z"/><path d="m361.994 330.335c-1.761 5.488-5.896 14.587-14.64 18.488-.93.415-.93 1.571 0 1.986 8.744 3.901 12.878 13 14.64 18.488.333 1.04 1.953 1.04 2.286 0 1.761-5.488 5.896-14.587 14.64-18.488.93-.415.93-1.571 0-1.986-8.744-3.901-12.878-13-14.64-18.488-.333-1.04-1.952-1.04-2.286 0z"/><path d="m627.361 209.623c-1.761 5.488-5.895 14.587-14.639 18.488-.931.415-.931 1.571 0 1.986 8.744 3.901 12.878 13 14.639 18.488.334 1.04 1.953 1.04 2.286 0 1.762-5.488 5.896-14.587 14.64-18.488.931-.415.931-1.571 0-1.986-8.744-3.901-12.878-13-14.64-18.488-.333-1.04-1.952-1.04-2.286 0z"/><path d="m416.832 150.741h105.106v-4.483h-105.106c-6.013 0-10.903-4.892-10.903-10.904h-4.484c-.001 8.484 6.903 15.387 15.387 15.387z"/><path d="m498.006 174.061c-5.634 0-10.217-4.583-10.217-10.217h-4.484c0 8.106 6.595 14.701 14.701 14.701h178.137v-4.483h-178.137z"/><path d="m447.798 190.917h-4.484c0 9.556 7.775 17.331 17.331 17.331h96.309v-4.483h-96.309c-7.084 0-12.847-5.764-12.847-12.848z"/><path d="m375.21 217.564h-4.484c0 9.556 7.775 17.33 17.331 17.33h103.611v-4.483h-103.611c-7.084 0-12.847-5.764-12.847-12.847z"/><path d="m109.061 684.78c6.309 0 11.442-5.133 11.442-11.441h-4.568c0 3.79-3.083 6.873-6.874 6.873s-6.874-3.083-6.874-6.873h-4.568c0 6.308 5.133 11.441 11.442 11.441z"/><path d="m273.588 684.78c6.309 0 11.442-5.133 11.442-11.441h-4.568c0 3.79-3.083 6.873-6.874 6.873s-6.874-3.083-6.874-6.873h-4.568c0 6.308 5.133 11.441 11.442 11.441z"/><path d="m190.539 199.76-1.277 4.298 6.59 1.957-5.519 4.097 2.673 3.6 9.119-6.77-.699-3.949z"/><path d="m239.044 197.234 4.479.205.237-5.175c1.43-.204 2.87-.509 4.304-.912l2.222 4.524 4.024-1.977-1.989-4.05c.987-.425 1.931-.902 2.848-1.408l5.178 3.281 2.4-3.787-3.481-2.207c1.857-1.475 3.447-3.115 4.643-4.873l-3.707-2.522c-2.354 3.461-6.618 6.448-11.697 8.193-4.712 1.62-9.553 2.002-13.63 1.083l-.987 4.373c1.704.385 3.51.578 5.371.592z"/><path d="m406.072 693.603h-.276-8.271c.632-1.184.993-2.533.993-3.967 0-2.525-1.119-4.789-2.881-6.339 1.767-1.63 2.881-3.956 2.881-6.544 0-2.656-1.175-5.039-3.024-6.674 1.85-1.635 3.024-4.018 3.024-6.675 0-2.656-1.175-5.039-3.024-6.674 1.85-1.635 3.024-4.018 3.024-6.674 0-4.917-4-8.917-8.917-8.917h-26.956-31.14l-73.749-204.648 72.809 94.446c1.96 2.543 4.927 4.001 8.139 4.001 2.496 0 4.907-.911 6.789-2.566 2.696-2.371 3.835-5.916 3.302-9.309 1.317.579 2.75.891 4.207.891 2.019 0 3.965-.591 5.628-1.71 2.353-1.582 3.962-4.091 4.416-6.882.175-1.076.173-2.166.008-3.228 1.303.564 2.717.868 4.154.868 2.019 0 3.965-.592 5.628-1.71 2.353-1.582 3.962-4.091 4.415-6.882.175-1.076.174-2.166.008-3.228 1.303.563 2.718.868 4.155.868 2.019 0 3.965-.592 5.628-1.71 2.353-1.583 3.962-4.092 4.415-6.883.454-2.792-.276-5.679-2.004-7.919l-22.163-28.75 1.844.221c.533.069 1.119.106 1.697.106 6.743 0 12.482-5.048 13.349-11.743.952-7.366-4.266-14.135-11.632-15.088l-24.175-3.299c-4.743-6.131-23.861-30.95-34.479-44.739l-56.78-79.569-7.422-22.913c5.11-.369 9.158-4.634 9.158-9.836 0-3.093-1.433-5.856-3.666-7.667 2.233-1.812 3.666-4.575 3.666-7.668 0-5.443-4.429-9.872-9.872-9.872h-1.959c24.423-9.359 40.942-25.317 42.273-41.64l72.221-8.117c9.922-1.055 16.237-5.749 19.307-14.349 1.066-2.986 1.316-6.221.725-9.353-.593-3.13-2.008-6.049-4.093-8.441-5.702-6.542-14.752-8.284-24.833-4.778l-70.668 24.711c-8.011-8.746-21.71-14.429-38.004-16.373l44.933-7.771 1.827-2.591-1.445-8.359-1.822-1.826c-17.587-3.08-36.294-4.029-55.647-2.826l1.874-36.321-2.621-2.324-81.583 14.11-1.707 3.023 13.459 34.542c-31.367 9.446-52.221 20.566-52.433 20.68l-1.147 2.356 1.446 8.359 2.591 1.827 37.254-6.443c.027.406.067.813.14 1.223.084.478.207.938.347 1.388-6.16 1.121-10.263 7.007-9.172 13.179.329 1.859 1.098 3.526 2.171 4.928-3.389 2.483-5.276 6.745-4.495 11.162.72 4.069 3.523 7.231 7.115 8.618 2.064 8.901 8.998 16.511 19.619 21.792-4.132 1.179-7.17 4.981-7.17 9.487 0 3.093 1.433 5.856 3.666 7.668-2.233 1.811-3.666 4.574-3.666 7.667 0 5.3 4.201 9.625 9.446 9.851l-.015.075-61.794 120.74.1.051-48.407 106.017c-1.116 2.487-1.152 5.326-.111 7.815 1.041 2.487 3.09 4.455 5.623 5.4 1.074.4 2.199.604 3.344.604 1.967 0 3.85-.595 5.44-1.647.437 3.014 2.232 5.758 5.059 7.253 1.412.746 2.997 1.141 4.583 1.141 1.95 0 3.812-.581 5.38-1.612.449 2.996 2.24 5.72 5.052 7.206 1.413.747 2.998 1.142 4.583 1.142 1.95 0 3.813-.582 5.38-1.612.448 2.995 2.24 5.72 5.052 7.206 1.082.572 2.267.933 3.475 1.071l-23.37 102.253.187.233-.223-.029-3.756 28.256c-.877 6.599 1.06 13.319 5.313 18.439 1.208 1.454 2.561 2.729 4.023 3.82h-14.944l-2.242 2.242v9.223 11.223l2.242 2.242h162.495l1.953-1.953 1.952 1.953h162.495l2.242-2.242v-10.946l.276-.276v-9.223zm-41.608-47.979h25.138c2.444 0 4.433 1.988 4.433 4.433s-1.988 4.432-4.433 4.432h-27.007zm-2.815 13.349h27.953c2.444 0 4.433 1.988 4.433 4.432s-1.988 4.433-4.433 4.433h-29.822zm-2.816 13.348h30.768c2.444 0 4.433 1.988 4.433 4.432s-1.988 4.433-4.433 4.433h-32.637zm-2.814 13.349h.108 33.475.466c2.188 0 3.967 1.779 3.967 3.966 0 2.188-1.779 3.967-3.967 3.967h-35.722zm-29.278-44.53h-8.641-8.01c-1.759-4.836-3.708-10.201-5.814-16.001h16.699zm-157.885-208.758c1.757 5.062 3.75 10.75 5.93 16.934h-15.2l-5.963-16.934zm-16.813-4.485-6.445-18.303h15.63c.943 3.207 3.069 9.582 6.076 18.303zm94.108 149.922c-2.008-5.552-4.054-11.211-6.122-16.934h15.703c2.074 5.738 4.121 11.399 6.124 16.934zm17.329 4.485c2.108 5.824 4.161 11.489 6.135 16.933h-15.71c-1.983-5.474-4.033-11.136-6.131-16.933zm-25.069-25.903c-2.026-5.61-4.068-11.269-6.11-16.933h15.701c2.046 5.674 4.088 11.333 6.111 16.933zm-7.726-21.417c-2.041-5.665-4.078-11.323-6.096-16.933h15.701c2.02 5.617 4.057 11.275 6.095 16.933zm-7.709-21.417c-2.057-5.724-4.089-11.383-6.079-16.934h15.705c1.99 5.556 4.021 11.216 6.076 16.934zm-7.686-21.418c-2.078-5.799-4.103-11.46-6.057-16.933h15.715c1.951 5.475 3.974 11.138 6.048 16.933zm-7.657-21.417c-2.111-5.919-4.127-11.588-6.022-16.933h15.734c1.889 5.346 3.901 11.016 6.006 16.933zm6.917-38.35h15.771c1.757 5.062 3.75 10.75 5.93 16.934h-15.74c-2.188-6.183-4.19-11.869-5.961-16.934zm1.212 16.933h-15.74c-2.188-6.183-4.189-11.868-5.96-16.934h15.771c1.757 5.062 3.75 10.751 5.929 16.934zm-12.899 21.417h-15.718c-2.111-5.919-4.127-11.588-6.022-16.933h15.734c1.889 5.347 3.9 11.016 6.006 16.933zm1.597 4.485c1.951 5.475 3.974 11.138 6.048 16.933h-15.707c-2.078-5.799-4.103-11.46-6.057-16.933zm7.654 21.417c1.99 5.556 4.021 11.216 6.076 16.934h-15.702c-2.057-5.724-4.089-11.383-6.079-16.934zm7.687 21.418c2.02 5.617 4.057 11.275 6.095 16.933h-15.7c-2.041-5.665-4.078-11.323-6.096-16.933zm7.712 21.417c2.046 5.674 4.088 11.333 6.111 16.933h-15.702c-2.026-5.61-4.068-11.269-6.109-16.933zm7.732 21.417c2.074 5.738 4.121 11.399 6.124 16.934h-15.706c-2.008-5.552-4.054-11.211-6.121-16.934zm7.747 21.418c2.108 5.824 4.161 11.489 6.135 16.933h-15.71c-1.983-5.474-4.033-11.136-6.131-16.933zm7.761 21.417c2.167 5.974 4.225 11.646 6.146 16.934h-15.715c-1.941-5.349-3.997-11.017-6.142-16.934zm4.777 0h15.711c2.167 5.974 4.225 11.646 6.146 16.934h-15.715c-1.942-5.349-3.997-11.017-6.142-16.934zm23.485 21.418c2.164 5.957 4.116 11.326 5.816 16.001h-15.717c-1.759-4.836-3.708-10.201-5.814-16.001zm4.773 0h15.715c2.164 5.956 4.116 11.326 5.816 16.001h-15.717c-1.758-4.836-3.708-10.202-5.814-16.001zm-1.628-4.485c-1.941-5.349-3.997-11.017-6.142-16.934h15.711c2.167 5.974 4.225 11.646 6.146 16.934zm-7.767-21.418c-1.983-5.474-4.034-11.136-6.131-16.933h15.707c2.108 5.824 4.161 11.489 6.135 16.933zm-7.753-21.417c-2.008-5.552-4.054-11.211-6.122-16.934h15.703c2.074 5.738 4.121 11.399 6.124 16.934zm-7.741-21.418c-2.026-5.61-4.068-11.269-6.11-16.933h15.701c2.046 5.674 4.088 11.333 6.111 16.933zm-7.726-21.417c-2.041-5.665-4.078-11.323-6.096-16.933h15.701c2.02 5.617 4.057 11.275 6.095 16.933zm-7.709-21.417c-2.057-5.724-4.089-11.383-6.079-16.934h15.705c1.99 5.556 4.021 11.216 6.076 16.934zm-7.686-21.418c-2.078-5.799-4.103-11.46-6.057-16.933h15.715c1.951 5.475 3.974 11.138 6.048 16.933zm-7.657-21.417c-2.111-5.919-4.127-11.588-6.022-16.933h15.734c1.889 5.346 3.901 11.016 6.006 16.933zm6.917-38.35h16.473l6.103 16.934h-16.615c-2.188-6.183-4.19-11.869-5.961-16.934zm-1.563-4.485c-2.997-8.62-5.151-14.977-6.182-18.303h8.607l13.113 15.856.882 2.447zm-4.706 0h-15.783c-2.997-8.62-5.151-14.977-6.182-18.303h15.889c.943 3.207 3.069 9.582 6.076 18.303zm-20.488 0h-15.783c-2.997-8.62-5.151-14.977-6.182-18.303h15.889c.942 3.207 3.069 9.582 6.076 18.303zm-13.007 21.418h-15.74c-2.188-6.183-4.189-11.868-5.96-16.934h15.771c1.757 5.062 3.749 10.751 5.929 16.934zm-18.906 4.485c1.889 5.346 3.901 11.016 6.006 16.933h-15.246l-5.963-16.933zm7.604 21.417c1.951 5.475 3.974 11.138 6.048 16.933h-15.35l-5.963-16.933zm7.653 21.417c1.99 5.556 4.021 11.216 6.076 16.934h-15.488l-5.963-16.934zm7.688 21.418c2.02 5.617 4.057 11.275 6.096 16.933h-15.653l-5.963-16.933zm7.712 21.417c2.046 5.674 4.088 11.333 6.111 16.933h-15.702c-1.886-5.223-3.784-10.482-5.685-15.754l-.415-1.179zm7.731 21.417c2.074 5.738 4.121 11.399 6.124 16.934h-15.706c-2.009-5.556-4.053-11.208-6.121-16.934zm7.748 21.418c2.109 5.824 4.161 11.489 6.135 16.933h-15.71c-.646-1.782-1.296-3.577-1.956-5.398-.099-.272-.197-.546-.296-.818-1.27-3.507-2.567-7.091-3.879-10.716h15.706zm7.761 21.417c2.167 5.974 4.225 11.646 6.146 16.934h-15.715c-1.077-2.968-2.186-6.024-3.33-9.177-.061-.167-.121-.335-.182-.502-.316-.873-.636-1.753-.957-2.639-.551-1.519-1.11-3.063-1.673-4.616zm7.774 21.418c2.284 6.287 4.334 11.927 6.098 16.777l-15.665.142c-1.843-5.065-3.911-10.756-6.148-16.919zm4.773 0h15.715c2.165 5.958 4.116 11.326 5.816 16.001h-15.717c-1.759-4.836-3.709-10.202-5.814-16.001zm72.409 20.616-11.559 47.848h-31.824c-9.668 0-17.771-6.933-19.268-16.484l-4.816-30.752zm4.138-25.101h-16.71c-1.941-5.349-3.998-11.017-6.142-16.934h16.75zm-7.718-21.418h-16.759c-1.983-5.474-4.034-11.136-6.131-16.933h16.788zm-7.719-21.417h-16.794c-2.008-5.552-4.054-11.211-6.122-16.934h16.813zm-7.718-21.418h-16.816c-2.026-5.61-4.068-11.269-6.11-16.933h16.824zm-7.718-21.417h-16.825c-2.041-5.665-4.078-11.323-6.096-16.933h16.818zm-7.718-21.417h-16.815c-2.057-5.724-4.089-11.383-6.079-16.934h16.792zm-7.719-21.418h-16.783c-2.078-5.799-4.103-11.46-6.057-16.933h16.738zm-13.82-38.349 6.102 16.933h-16.722c-2.111-5.919-4.127-11.588-6.022-16.933zm86.728-22.617 26.017 3.55c4.923.638 8.396 5.144 7.76 10.066-.586 4.531-4.451 7.835-8.901 7.835-.384 0-.773-.024-1.165-.075l-12.447-1.488 28.683 37.207c2.03 2.633 1.44 6.458-1.362 8.344-.957.644-2.043.947-3.126.947-1.815 0-3.622-.852-4.801-2.38l-22.25-28.863-5.038 3.884 22.372 29.021c2.029 2.633 1.439 6.458-1.363 8.343-.957.644-2.043.947-3.126.947-1.814 0-3.622-.851-4.8-2.38l-22.25-28.862-5.038 3.883 22.372 29.021c2.03 2.633 1.44 6.458-1.363 8.344-.957.643-2.043.946-3.126.946-1.814 0-3.622-.851-4.8-2.379l-22.25-28.863-5.038 3.884 22.25 28.863c1.882 2.441 1.684 5.994-.631 8.03-1.112.978-2.475 1.449-3.828 1.449-1.733 0-3.448-.775-4.588-2.255l-75.426-97.842 54.336-41.888c8.304 10.785 32.698 42.456 32.927 42.711zm-43.828-57.703-53.999 44.008-12.56-15.327 55.433-44.271zm-22.325-31.286-56.505 45.127.311.375-12.5-15.116 57.57-45.977zm-22.325-31.285-58.642 46.833-12.19-14.74 59.707-47.684zm-83.031 17.195c-.004-.006-.008-.012-.012-.018-4.118-5.7-6.46-12.181-7.121-18.761l48.782-38.959c5.602 1.606 10.864 4.55 15.238 8.802l1.563.634h2.03zm74.53-52.785h-12.021c-4.729-4.877-10.524-8.563-16.884-10.778h28.904c2.971 0 5.389 2.417 5.389 5.389s-2.417 5.389-5.388 5.389zm-90.387-138.355 69.725-13.639-1.042 20.208-61.674 11.419zm6.119 22.712 64.983-12.031c14.726-1.049 29.071-.828 42.832.637l-146.624 25.359c9.401-4.048 22.766-9.251 38.809-13.965zm-51.597 24.786-.682-3.942 172.792-29.885.681 3.941-68.426 11.835c-2.645.298-5.311.678-7.99 1.151-2.387.422-4.746.908-7.068 1.453zm91.707 8.508c-.028-.021-.055-.043-.083-.064l.015-.004zm-54.935 31.093c5.447-1.778 23.593-7.513 29.406-9.348 1.255 2.353 3.045 4.4 5.294 5.973 2.918 2.042 6.317 3.105 9.806 3.105 1.005 0 2.017-.088 3.027-.267 5.362-.948 10.004-4.447 12.416-9.358l-4.024-1.977c-1.811 3.688-5.153 6.209-9.172 6.92-3.337.59-6.705-.155-9.482-2.097s-4.632-4.851-5.222-8.188c-1.218-6.89 3.396-13.486 10.286-14.704 4.017-.712 8.022.511 10.988 3.354l2.995-3.125 5.039 5.039 9.436-1.206s-.384-18.863-.546-27.543c25.843-2.471 48.973 3.624 59.405 16.166l2.463.683 72.095-25.21c11.308-3.931 17.37.499 19.979 3.491 1.562 1.792 2.621 3.98 3.065 6.328.445 2.35.258 4.774-.541 7.012-1.552 4.348-4.853 10.259-15.572 11.399l-74.139 8.333-1.991 2.217c-.021 4.344-1.393 8.737-3.902 13.005-5.922.836-16.536.412-25.202-10.295l-3.485 2.82c8.237 10.177 18.239 12.212 24.918 12.212.168 0 .322-.008.486-.011-8.825 10.994-25.092 20.659-44.931 25.771h-45.137c-.599 0-1.21.054-1.822.162h-10.015c-13.724-4.212-22.963-11.64-25.921-20.661zm17.466 25.143h8.122 10.554 62.951c2.971 0 5.389 2.417 5.389 5.389s-2.417 5.389-5.389 5.389h-81.627c-2.972 0-5.389-2.417-5.389-5.389-.001-2.971 2.417-5.389 5.389-5.389zm-5.39 20.724c0-2.972 2.417-5.389 5.389-5.389h24.258c-4.192 1.468-8.163 3.587-11.801 6.336-1.803 1.362-3.464 2.854-5.004 4.442h-7.453c-2.971 0-5.389-2.417-5.389-5.389zm19.755 139.664c.943 3.207 3.069 9.582 6.076 18.303h-15.782c-2.997-8.62-5.151-14.977-6.182-18.303zm-18.07-113.519c-.311 1.413-1.955 9.444-1.955 9.444l-2.341-1.05zm-13.536 26.447 7.926 3.555-3.291 17.14-12.384-5.554zm-15.548 30.382 16.871 7.567-3.291 17.139-21.329-9.566zm-15.55 30.381 25.817 11.58s-4.611 12.753-4.561 12.982l-.715 2.035-27.666-12.677zm-18.399 143.057c-.884 1.971-2.82 3.139-4.849 3.139-.836 0-1.688-.199-2.488-.622-2.5-1.321-3.437-4.448-2.28-7.029l13.684-30.509-5.325-2.388-13.758 30.674c-.884 1.971-2.821 3.139-4.849 3.139-.836 0-1.688-.198-2.488-.621-2.5-1.322-3.438-4.449-2.28-7.03l13.684-30.508-5.325-2.389-13.684 30.508c-.902 2.012-2.897 3.294-4.989 3.294-.592 0-1.192-.103-1.777-.321-2.904-1.083-4.248-4.37-3-7.153l48.786-106.852 28.802 12.918-16.907 73.978c-6.397-3.845-13.27-10.062-14.653-19.455l-4.52.666c1.31 8.893 6.929 16.638 16.251 22.398.622.385 1.239.743 1.849 1.085l-1.067 4.671-5.058-2.269zm7.679 9.252c-2.5-1.322-3.438-4.449-2.28-7.029l13.084-29.172-8.415 36.815c-.804-.014-1.62-.208-2.389-.614zm-17.022 151.322c-3.457-4.159-5.03-9.62-4.317-14.982l3.497-26.31h61.817l-11.59 47.979h-35.239c-.342 0-.682-.008-1.025-.026-5.128-.267-9.796-2.633-13.143-6.661zm145.884 27.132h-158.011v-6.738h158.012v6.738zm-21.304-54.765c.434 0 .856-.042 1.273-.102 1.821.551 3.159 2.225 3.159 4.223 0 2.444-1.988 4.433-4.432 4.433h-19.056l1.804-8.554zm-16.241-4.795 1.804-8.554h14.437c2.444 0 4.432 1.988 4.432 4.433 0 1.998-1.338 3.672-3.159 4.223-.417-.06-.84-.102-1.273-.102zm16.241 17.833c2.444 0 4.432 1.988 4.432 4.432s-1.988 4.433-4.432 4.433h-.443-21.428l1.869-8.864h20.002zm-.443 13.349c2.266 0 4.162 1.724 4.226 3.843.033 1.084-.365 2.109-1.118 2.886-.754.776-1.765 1.204-2.847 1.204h-24.308l1.673-7.933zm27.617 7.933-1.538 1.538-1.538-1.538h-.553-16.27c.685-1.283 1.032-2.726.987-4.225-.067-2.233-1.059-4.26-2.606-5.739 1.988-1.637 3.257-4.115 3.257-6.886 0-2.656-1.174-5.039-3.024-6.674 1.85-1.635 3.024-4.018 3.024-6.675 0-2.574-1.103-4.89-2.853-6.519 1.75-1.629 2.853-3.944 2.853-6.519 0-4.917-4-8.917-8.916-8.917h-15.937l-.252-.311h-20.843l17.074-75.764c11.819 32.691 22.619 62.415 28.908 79.704l2.127 1.475 16.295-.147 4.919 31.404c1.032 6.59 4.623 12.165 9.674 15.791h-14.514-.274zm160.53 20.445h-158.012v-6.738h158.011v6.738z"/></g></svg>