<?xml version="1.0" encoding="utf-8"?>
<!-- Generator: Adobe Illustrator 16.0.0, SVG Export Plug-In . SVG Version: 6.00 Build 0)  -->
<!DOCTYPE svg PUBLIC "-//W3C//DTD SVG 1.1//EN" "http://www.w3.org/Graphics/SVG/1.1/DTD/svg11.dtd">
<svg version="1.1" id="Layer_1" xmlns="http://www.w3.org/2000/svg" xmlns:xlink="http://www.w3.org/1999/xlink" x="0px" y="0px"
	 width="600px" height="600px" viewBox="0 0 600 600" enable-background="new 0 0 600 600" xml:space="preserve">
<g>
	<g>
		<path fill="#003399" d="M484,65.305H117.792l-3.827,3.812l-1.235,382.511l0.009,0.004l-0.009,0.005v79.736l3.828,3.823h366.208
			l3.822-3.823v-79.724l1.235-382.508L484,65.305z M478.938,527.55H120.385v-72.092h358.553V527.55z M121.354,447.813
			l24.844-108.625v108.625H121.354z M177.446,447.813V297.398c3.208-0.832,6.566-1.272,10.022-1.272h17.991v151.687H177.446z
			 M333.424,143.088c-17.854,0-32.583,13.593-34.397,30.971H295c-1.814-17.378-16.548-30.971-34.402-30.971
			c-17.743,0-32.384,13.429-34.349,30.652l-33.61-0.821c10.102-13.548,28.039-24.968,50.711-32.012
			c55.22-14.438,106.723-0.17,107.156-0.046c21.906,6.803,39.419,17.652,49.72,30.535l-32.609,1.321
			C365.197,155.99,350.809,143.088,333.424,143.088z M358.454,177.678c0,13.803-11.229,25.033-25.03,25.033
			c-12.761,0-23.203-9.635-24.725-21.988v-6.088c1.521-12.354,11.964-21.986,24.725-21.986
			C347.225,152.647,358.454,163.877,358.454,177.678z M285.633,177.678c0,13.803-11.23,25.033-25.035,25.033
			c-13.801,0-25.03-11.23-25.03-25.033c0-13.8,11.229-25.03,25.03-25.03C274.403,152.647,285.633,163.877,285.633,177.678z
			 M226.214,181.39c1.863,17.333,16.566,30.877,34.384,30.877c8.743,0,16.716-3.283,22.809-8.65l-0.792,2.628
			c-1.332,6.259,1.279,12.858,6.796,16.093c2.23,1.307,4.827,2.055,7.602,2.055c2.77,0,5.367-0.748,7.597-2.055
			c5.522-3.235,8.129-9.834,6.801-16.093l-0.796-2.628c6.097,5.367,14.065,8.65,22.809,8.65c17.514,0,31.986-13.086,34.247-29.983
			l45.41-2.423c2.912-8.577,10.951-14.34,20.009-14.34c5.757,0,11.133,2.274,15.15,6.4c4.008,4.126,6.132,9.573,5.969,15.338
			c-0.328,11.409-10.287,20.727-21.668,20.51c-5.986-0.153-11.654-2.865-15.548-7.442l-6.717,2.069
			c-0.628,5.871-2.682,11.583-5.934,17.026c-2.73-2.328-6.173-3.825-9.96-4.071c-0.381-0.026-0.761-0.038-1.142-0.038
			c-4.633,0-8.991,1.805-12.27,5.082c-1.115,1.115-2.058,2.356-2.818,3.688c-2.827-4.92-7.916-8.35-13.845-8.732
			c-0.381-0.026-0.762-0.038-1.142-0.038c-4.633,0-8.991,1.805-12.27,5.082c-3.274,3.278-5.08,7.637-5.08,12.271v23.902
			c-59.237,12.736-105.616-1.772-106.661-2.108c-32.756-11.276-53.49-30.959-55.477-52.66l-6.801-2.029
			c-4.04,5.088-10.07,8.006-16.557,8.006c-5.752,0-11.128-2.274-15.146-6.398c-4.009-4.124-6.133-9.57-5.973-15.334
			c0.314-11.114,9.61-20.32,20.729-20.521c9.265-0.142,17.871,5.982,20.601,14.951L226.214,181.39z M443.687,294.102V233
			c0-5.168,3.903-9.681,9.058-10.015c0.217-0.016,0.434-0.022,0.646-0.022c5.362,0,9.707,4.345,9.707,9.706v158.093h-0.358
			c0,16.805-26.623,30.999-58.127,30.999c-27.043,0-50.428-10.464-56.529-24.052c0.009-24.097,0.005-47.99-0.022-48.335
			l-30.91-31.345c-5.885-5.885-5.885-15.427,0-21.312c0.226-0.226,0.486-0.383,0.726-0.591c1.411-1.25,3-2.199,4.673-2.84
			c0.097-0.038,0.198-0.055,0.296-0.088c0.739-0.266,1.487-0.489,2.252-0.635c0.894-0.162,1.801-0.259,2.708-0.259
			s1.814,0.097,2.708,0.259c0.766,0.146,1.514,0.37,2.252,0.635c0.098,0.033,0.199,0.051,0.297,0.088
			c1.673,0.642,3.257,1.59,4.672,2.84c0.235,0.208,0.5,0.365,0.726,0.591l14.726,14.444l0.014,0.066
			c0.004,0,0.044-0.005,0.049-0.005l0.217,0.213v-0.248c2.822-0.434,44.844-6.367,62.596,21.465l6.565-4.19
			c-19.273-30.219-60.648-26.312-69.161-25.147v-7.188v-7.648v-55.811c0-5.36,4.345-9.706,9.703-9.706
			c0.217,0,0.429,0.007,0.65,0.022c5.154,0.334,9.058,4.847,9.058,10.015v61.103h10.663v-61.435c0-5.36,4.345-9.706,9.703-9.706
			c0.217,0,0.429,0.007,0.646,0.022c5.16,0.334,9.063,4.847,9.063,10.015v61.103h10.663v-61.435c0-5.36,4.345-9.706,9.703-9.706
			c0.217,0,0.43,0.007,0.646,0.022c5.159,0.334,9.057,4.847,9.057,10.015v61.103H443.687z M239.228,278.726h106.59v9.752h-5.389
			c-3.687-2.476-8.054-3.823-12.624-3.823c-4.562,0-8.916,1.338-12.619,3.823h-74.949c-2.142-1.15-3.531-3.336-3.531-5.798
			C236.706,280.979,237.714,279.47,239.228,278.726z M236.706,265.715c0-1.387,0.65-2.652,1.699-3.487
			c6.022,1.766,27.407,7.336,57.525,7.336c14.783,0,31.693-1.387,49.888-5.192v6.706h-106.28
			C237.798,269.839,236.706,267.877,236.706,265.715z M295.699,296.126h12.478c-4.96,8.673-3.831,19.911,3.566,27.31l12.243,12.415
			v111.962h-28.287V296.126z M236.44,296.126h2.792h25.491v151.687H236.44V296.126z M479.035,421.831l-8.291-32.194V232.667
			c0-9.568-7.783-17.354-17.354-17.354c-0.377,0-0.757,0.011-1.138,0.038c-5.969,0.385-11.084,3.856-13.897,8.827
			c-2.814-4.971-7.934-8.442-13.898-8.827c-0.38-0.026-0.761-0.038-1.142-0.038c-3.526,0-6.885,1.058-9.734,3
			c1.239-2.655,2.253-5.358,2.991-8.11c4.593,3.223,10.075,5.068,15.77,5.212c0.239,0.004,0.474,0.009,0.708,0.009
			c15.261,0,28.376-12.642,28.8-27.951c0.227-7.849-2.668-15.265-8.128-20.884c-5.469-5.62-12.791-8.715-20.632-8.715
			c-9.77,0-18.668,4.92-23.92,12.77c-3.991-5.867-9.27-11.378-15.61-16.402c7.562-2.473,13.07-9.471,13.07-17.867
			c0-10.464-8.486-18.949-18.95-18.949c-3.447,0-6.637,0.991-9.42,2.6c-2.217-8.004-9.479-13.914-18.186-13.914
			c-5.27,0-10.026,2.155-13.46,5.624c-2.615-7.341-9.553-12.628-17.792-12.628c-5.628,0-10.57,2.555-14.039,6.455
			c-3.46-4.548-8.876-7.533-15.035-7.533c-0.182,0-0.363,0.029-0.544,0.036c-0.186-0.007-0.363-0.036-0.549-0.036
			c-6.159,0-11.575,2.984-15.035,7.533c-3.464-3.9-8.411-6.455-14.04-6.455c-8.239,0-15.176,5.287-17.787,12.628
			c-3.434-3.469-8.194-5.624-13.459-5.624c-8.708,0-15.974,5.909-18.186,13.914c-2.788-1.608-5.978-2.6-9.425-2.6
			c-10.464,0-18.946,8.484-18.946,18.949c0,7.31,4.186,13.557,10.248,16.705c-7.19,5.465-13.15,11.513-17.491,18.024
			c-5.305-8.216-14.619-13.369-24.738-13.225c-15.15,0.272-27.813,12.812-28.234,27.957c-0.217,7.845,2.672,15.259,8.132,20.875
			c5.469,5.622,12.792,8.712,20.628,8.712c6.23,0,12.155-1.974,17.031-5.568c5.292,20.396,24.566,38.388,53.401,49.667
			c-1.088,1.836-1.699,3.962-1.699,6.192c0,3.286,1.133,6.403,3.106,8.889c-1.951,2.177-3.106,5.038-3.106,8.075
			c0,2.04,0.434,4.006,1.23,5.798h-42.817c-22.088,0-40.955,15.04-45.875,36.572l-21.101,92.25l1.11-344.35h358.562L479.035,421.831
			z"/>
		<path fill="#003399" d="M329.822,490.502h-11.619c-1.371,0-2.491-1.124-2.491-2.491v-5.77c0-1.367,1.12-2.491,2.491-2.491h9.297
			c0.911,0,1.659-0.748,1.659-1.659c0-0.916-0.748-1.62-1.659-1.62h-12.58c-1.367,0-2.49,1.08-2.49,2.447v12.411
			c0,1.372,1.123,2.451,2.49,2.451l5.774,0.04c1.367,0,2.486,1.08,2.486,2.451v7.513c0,1.372-1.119,2.452-2.486,2.452h-6.602
			c-0.911,0-1.659,0.743-1.659,1.654c0,0.916,0.748,1.664,1.659,1.664h15.729c1.372,0,2.451-1.124,2.451-2.491v-14.075
			C332.273,491.621,331.194,490.502,329.822,490.502z"/>
		<path fill="#003399" d="M346.928,477.427c-0.415-0.668-1.163-1.079-2.035-1.079h-4.397c-1.372,0-2.491,1.119-2.491,2.49v28.226
			c0,1.367,1.119,2.491,2.491,2.491h3.318c1.371,0,2.491-1.124,2.491-2.491v-4.15c0-1.372-2.491-2.491-2.491-2.491
			c-1.372,0-2.491-1.124-2.491-2.491v-2.491c0-0.911,0.748-1.659,1.659-1.659h9.796c0.624,0,1.124,0.332,1.456,0.827
			c0,0,0.04,0.089,2.699,4.027c0.079,0.168,0.124,0.376,0.124,0.539c0,0.708-0.584,1.248-1.248,1.248h-4.938
			c-1.372,0-2.491,1.119-2.491,2.491v4.15c0,1.367,1.119,2.491,2.491,2.491h7.885c1.371,0,2.49-1.124,2.49-2.491v-6.518
			c0-0.664-0.123-1.283-0.331-1.867C347.052,477.591,346.928,477.427,346.928,477.427z M349.251,490.457h-5.438
			c-1.411,0-2.491-1.119-2.491-2.486v-6.602c0-0.911,0.748-1.664,1.659-1.664h0.624c0.579,0,1.079,0.293,1.371,0.753l5.395,8.177
			c0.084,0.163,0.123,0.371,0.128,0.579C350.494,489.878,349.915,490.457,349.251,490.457z"/>
		<path fill="#003399" d="M385.073,489.59c-0.456-0.46-0.748-1.079-0.748-1.743v-8.885c0-1.371-1.079-2.491-2.446-2.491h-12.411
			c-1.372,0-2.491,1.12-2.491,2.491v28.102c0,1.367,1.119,2.491,2.491,2.491h3.318c1.371,0,2.451-1.124,2.451-2.491v-10.748
			c0-1.371,1.119-2.495,2.491-2.495h4.982c1.367,0,2.446,1.124,2.446,2.495v11.575c0,0.911,1.659,1.664,1.659,1.664
			c0.912,0,1.659-0.753,1.659-1.664v-13.862c0-0.664-0.287-1.288-0.747-1.743L385.073,489.59z M381.047,488.051
			c0,1.371-1.119,2.495-2.491,2.495h-5.77c-1.367,0-2.491-1.124-2.491-2.495v-5.81c0-1.367,1.124-2.447,2.491-2.447h5.77
			c1.372,0,2.491,1.08,2.491,2.447V488.051z"/>
		<path fill="#003399" d="M412.263,476.348h-15.773c-1.367,0-2.491,1.119-2.491,2.49v28.226c0,1.367,1.124,2.491,2.491,2.491h15.773
			c0.916,0,1.659-0.753,1.659-1.664v-14.981c0-1.372-1.119-2.491-2.491-2.491h-7.553c-0.911,0-1.659,0.747-1.659,1.659v5.813
			c0,0.912,0.748,1.659,1.659,1.659h4.234c1.372,0,2.491,1.12,2.491,2.491v1.699c0,1.372-1.119,2.451-2.491,2.491h-8.301
			c-1.371,0-2.491-1.119-2.491-2.491v-15.77c0-1.371,1.12-2.495,2.491-2.495h12.451c0.916,0,1.659-0.743,1.659-1.655v-5.813
			C413.922,477.095,413.179,476.348,412.263,476.348z"/>
		<path fill="#003399" d="M437.045,490.502h-11.623c-1.367,0-2.491-1.124-2.491-2.491v-5.77c0-1.367,1.124-2.491,2.491-2.491h9.296
			c0.916,0,1.664-0.748,1.664-1.659c0-0.916-0.748-1.62-1.664-1.62h-12.574c-1.372,0-2.491,1.08-2.491,2.447v12.411
			c0,1.372,1.119,2.451,2.491,2.451l5.77,0.04c1.371,0,2.491,1.08,2.491,2.451v7.513c0,1.372-1.12,2.447-2.491,2.447h-6.602
			c-0.912,0-1.659,0.748-1.659,1.659s0.747,1.664,1.659,1.664h15.733c1.372,0,2.447-1.124,2.447-2.491v-14.075
			C439.492,491.621,438.412,490.502,437.045,490.502z"/>
		<path fill="#003399" d="M178.521,476.343h-15.77c-1.372,0-2.491,1.124-2.491,2.495v28.226c0,1.367,1.119,2.491,2.491,2.491h15.77
			c0.916,0,1.664-0.748,1.664-1.664v-14.981c0-1.372-1.124-2.491-2.491-2.491h-7.557c-0.912,0-1.659,0.747-1.659,1.659v5.813
			c0,0.912,0.748,1.659,1.659,1.659h4.234c1.372,0,2.491,1.12,2.491,2.491v1.699c0,1.372-1.12,2.451-2.491,2.496h-8.3
			c-1.372,0-2.491-1.124-2.491-2.496v-15.77c0-1.371,1.119-2.495,2.491-2.495h12.451c0.916,0,1.664-0.743,1.664-1.659v-5.81
			C180.185,477.095,179.437,476.343,178.521,476.343z"/>
		<path fill="#003399" d="M194.835,477.427c-0.416-0.668-1.159-1.084-2.031-1.084h-4.402c-1.367,0-2.487,1.124-2.487,2.495v28.226
			c0,1.367,1.12,2.491,2.487,2.491h3.323c1.372,0,2.491-1.124,2.491-2.491v-4.15c0-1.372-2.491-2.491-2.491-2.491
			c-1.372,0-2.491-1.124-2.491-2.491v-2.491c0-0.911,0.748-1.659,1.659-1.659h9.796c0.624,0,1.12,0.332,1.451,0.827
			c0,0,0.044,0.089,2.699,4.027c0.084,0.168,0.124,0.376,0.124,0.539c0,0.708-0.58,1.248-1.243,1.248h-4.938
			c-1.372,0-2.491,1.119-2.491,2.491v4.15c0,1.367,1.12,2.491,2.491,2.491h7.885c1.372,0,2.491-1.124,2.491-2.491v-6.518
			c0-0.664-0.124-1.283-0.332-1.867C194.963,477.591,194.835,477.427,194.835,477.427z M197.162,490.457h-5.438
			c-1.412,0-2.491-1.119-2.491-2.486v-6.602c0-0.911,0.748-1.664,1.659-1.664h0.624c0.579,0,1.079,0.293,1.367,0.753l5.398,8.177
			c0.084,0.163,0.124,0.371,0.124,0.579C198.405,489.878,197.826,490.457,197.162,490.457z"/>
		<path fill="#003399" d="M227.13,500.422h-0.748c-1.367,0-2.491-1.124-2.491-2.491v-19.924c0-0.912-1.659-1.664-1.659-1.664
			c-0.912,0-1.659,0.752-1.659,1.664v19.924c0,1.367-1.12,2.491-2.491,2.491h-0.708c-1.367,0-2.487,1.119-2.487,2.491v4.15
			c0,1.367,1.12,2.491,2.487,2.491h9.756c1.372,0,2.491-1.124,2.491-2.491v-4.15C229.622,501.541,228.502,500.422,227.13,500.422z"
			/>
		<path fill="#003399" d="M252.74,490.502h-11.619c-1.372,0-2.491-1.124-2.491-2.491v-5.77c0-1.372,1.12-2.491,2.491-2.491h9.296
			c0.916,0,1.659-0.743,1.659-1.659s-0.743-1.62-1.659-1.62h-12.575c-1.372,0-2.491,1.08-2.491,2.447v12.416
			c0,1.367,1.119,2.446,2.491,2.446l5.765,0.04c1.372,0,2.491,1.08,2.491,2.451v7.513c0,1.372-1.12,2.452-2.491,2.452h-6.597
			c-0.912,0-1.659,0.743-1.659,1.654c0,0.916,0.748,1.664,1.659,1.664h15.729c1.372,0,2.451-1.124,2.451-2.491v-14.075
			C255.191,491.621,254.112,490.502,252.74,490.502z"/>
		<path fill="#003399" d="M269.846,477.427c-0.416-0.668-1.164-1.084-2.036-1.084h-4.398c-1.372,0-2.491,1.124-2.491,2.495v28.226
			c0,1.367,1.119,2.491,2.491,2.491h3.319c1.371,0,2.491-1.124,2.491-2.491v-4.15c0-1.372-2.491-2.491-2.491-2.491
			c-1.367,0-2.491-1.124-2.491-2.491v-2.491c0-0.911,0.748-1.659,1.659-1.659h9.796c0.624,0,1.124,0.332,1.456,0.827
			c0,0,0.04,0.089,2.694,4.027c0.084,0.168,0.128,0.376,0.128,0.539c0,0.708-0.584,1.248-1.248,1.248h-4.938
			c-1.372,0-2.491,1.119-2.491,2.491v4.15c0,1.367,1.12,2.491,2.491,2.491h7.885c1.372,0,2.491-1.124,2.491-2.491v-6.518
			c0-0.664-0.124-1.283-0.332-1.867C269.97,477.591,269.846,477.427,269.846,477.427z M272.169,490.457h-5.438
			c-1.412,0-2.491-1.119-2.491-2.486v-6.602c0-0.911,0.748-1.664,1.659-1.664h0.624c0.58,0,1.08,0.293,1.372,0.753l5.394,8.177
			c0.084,0.163,0.124,0.371,0.124,0.579C273.413,489.878,272.833,490.457,272.169,490.457z"/>
		<path fill="#003399" d="M140.575,258.069c8.093,3.611,11.92,12.035,13.553,17.115c0.31,0.962,1.805,0.962,2.115,0
			c1.632-5.08,5.46-13.504,13.553-17.115c0.862-0.385,0.862-1.453,0-1.838c-8.093-3.611-11.92-12.035-13.553-17.115
			c-0.31-0.962-1.806-0.962-2.115,0c-1.633,5.08-5.46,13.504-13.553,17.115C139.712,256.616,139.712,257.685,140.575,258.069z"/>
		<path fill="#003399" d="M425.572,119.611c8.098,3.613,11.925,12.035,13.553,17.117c0.31,0.96,1.81,0.96,2.115,0
			c1.633-5.082,5.46-13.504,13.553-17.117c0.862-0.383,0.862-1.454,0-1.838c-8.093-3.61-11.92-12.035-13.553-17.115
			c-0.306-0.962-1.806-0.962-2.115,0c-1.628,5.08-5.455,13.504-13.553,17.115C424.709,118.157,424.709,119.228,425.572,119.611z"/>
		<polygon fill="#003399" points="443.439,191.979 432.997,186.755 443.439,181.534 440.023,174.693 422.736,183.335 
			422.736,190.175 440.023,198.817 		"/>
		<polygon fill="#003399" points="148.5,181.534 158.942,186.755 148.5,191.979 151.916,198.817 169.203,190.175 169.203,183.335 
			151.916,174.693 		"/>
		<path fill="#003399" d="M297.009,246.842c18.88,0,34.243-12.672,34.243-28.249h-9.563c0,10.305-11.07,18.69-24.68,18.69
			c-13.606,0-24.676-8.385-24.676-18.69h-9.558C262.775,234.17,278.134,246.842,297.009,246.842z"/>
		<circle fill="#003399" cx="328.212" cy="178.271" r="8.259"/>
		<circle fill="#003399" cx="264.211" cy="178.271" r="8.259"/>
	</g>
</g>
</svg>
