<svg enable-background="new 0 0 1280 800" height="800" viewBox="0 0 1280 800" width="1280" xmlns="http://www.w3.org/2000/svg"><g fill="#039"><path d="m422.662 593.686s0 0-30.978.884c-4.427-.884-7.966 2.658-7.966 7.969.003 3.542 3.542 7.078 7.968 7.962 0 0 0 0 73.459-.878 7.081 0 11.502-4.421 11.519-11.522 0 0 0 0 0-65.493 0-7.084-5.311-12.395-11.508-11.511 0 0 0 0-53.989-.884-7.081.006-12.392-5.311-11.508-11.505 0 0 0 0 0-26.547-.881-6.2 4.427-11.505 11.508-11.511 0 0 0 0 43.368-.884 4.423.89 7.96-2.646 7.079-7.079.881-4.426-2.658-7.963-7.968-7.968 0 0 0 0-58.417.005-6.195.885-10.621 5.306-11.505 11.505 0 0 0 0-.003 58.415.887 6.194 5.313 10.621 11.508 11.511 0 0 0 0 26.552-.006 7.079.006 12.387 5.316 11.505 11.506 0 0 0 0 .885 34.521-.004 7.083-5.315 12.393-11.509 11.51z"/><path d="m612.95 598.111s0 0-.887-30.979c.887-2.652.006-5.311-.878-7.963-65.497-99.136-66.38-100.02-66.38-100.02-.884-2.652-5.308-5.305-8.853-5.305 0 0 0 0-20.352.884-7.082 0-12.395 5.311-11.508 11.505 0 0 0 0-.887 131.877.881 6.189 6.195 11.5 11.505 11.505 0 0 0 0 15.929.006 7.079-.006 11.508-4.438 11.508-11.511 0 0 0 0 .003-19.468-.003-7.079-11.511-11.511-11.511-11.511-7.079.006-12.389-5.311-11.502-11.505 0 0 0 0 0-12.39-.009-3.541 3.533-7.084 7.079-7.078 0 0 0 0 46.023.006 3.539-.006 5.308 1.768 7.078 3.536 0 0 0 0 12.393 19.474.887.885.887.885.887 2.652-.887 2.652-2.655 4.421-5.313 5.311 0 0 0 0-23.013 0-7.079 0-12.392 5.311-11.502 11.505v19.474c-.89 6.194 4.423 11.505 11.502 11.505 0 0 0 0 36.286.878 6.196-.877 11.506-6.187 12.393-12.388zm-56.643-77.877s0 0-25.668.885c-6.194-.885-11.505-6.195-12.389-12.39 0 0 0 0 .884-30.979-.003-3.542 3.539-7.084 7.966-7.963 0 0 0 0 2.649.879 2.664-.885 4.432.884 6.203 2.657 0 0 0 0 25.662 38.052.006 1.769.006 1.769 0 3.548.89 2.653-1.765 5.311-5.307 5.311z"/><path d="m689.07 536.166h23.016c7.073-.006 12.39 5.305 11.5 11.499 0 0 0 0 .89 53.994-.896 4.427 7.962 7.963 7.962 7.963 3.537 0 7.079-3.542 7.079-7.084 0 0 0 0 0-65.494-.006-3.548-.884-6.194-3.542-8.853 0 0 0 0-12.389-12.389-1.774-1.774-2.647-4.432-3.537-7.084 0 0 0 0-.006-42.484.006-5.311-4.42-11.505-11.499-11.505 0 0 0 0-58.421 0-5.307 0-10.62 5.316-11.505 11.505 0 0 0 0 .885 131.877-.885 6.194 4.429 11.505 11.505 11.505 0 0 0 0 15.047.89 6.194-.884 11.505-6.2 12.389-12.389 0 0 0 0-.884-50.446 0-7.079 5.316-12.395 11.51-11.505zm4.427-15.053s0 0-27.442-.891c-6.188.885-11.499-4.42-11.505-11.499 0 0 0 0 0-26.558 0-7.073 5.316-12.384 11.505-11.505h26.559c7.072.006 12.383 5.315 12.383 10.621l.006 28.325c-.001 5.312-5.317 10.623-11.506 11.507z"/><path d="m776.689 609.622h74.341c3.542 0 7.084-3.542 7.969-7.969 0 0 0 0-.89-69.919.878-6.195-4.427-11.506-11.512-11.506 0 0 0 0-35.398.006-3.537-.006-7.079 3.537-7.963 7.957 0 0 0 0 .884 27.437 0 3.536 3.542 7.085 7.085 7.079 0 0 0 0 20.352.896 6.2-.89 11.511 4.42 11.505 11.499 0 0 0 0 .006 7.078 0 7.085-5.311 12.396-11.511 11.506 0 0 0 0-38.941 0-6.194.884-11.511-4.433-11.505-11.511 0 0 0 0-.884-73.456.878-6.195 6.188-11.512 12.389-12.39 0 0 0 0 57.525.884 5.316 0 8.853-3.536 7.969-7.963 0 0 0 0 .895-27.436-.005-3.549-3.547-7.085-7.974-7.969 0 0 0 0-73.45.884-7.085 0-12.4 5.316-11.512 11.511 0 0 0 0-.889 131.871.888 6.195 6.199 11.505 11.509 11.511z"/><path d="m893.52 593.686c-4.427.89-7.969 4.426-7.969 7.968 0 5.316 2.658 7.969 7.969 7.969h72.572c7.084 0 12.395-5.311 11.505-11.505 0 0 0 0 .896-66.383 0-5.311-5.316-10.627-11.511-11.512 0 0 0 0-54.878.006-6.195.885-11.506-4.426-11.506-11.505 0 0 0 0 .006-26.558 0-7.073 5.311-12.384 11.5-11.505h44.257c3.536 0 7.079-3.542 7.963-7.963-.884-4.427-4.432-7.969-7.963-7.969 0 0 0 0-59.305.884-6.188-.884-11.505 4.433-11.505 11.506v56.641c0 7.078 5.311 12.395 11.511 11.511 0 0 0 0 27.431.884 5.316 0 11.511 4.427 11.511 11.511 0 0 0 0-.006 35.399-.878 6.194-5.305 10.627-11.505 11.505-.001-.001-.001-.001-30.973-.884z"/><path d="m385.489 391.895c.005 7.078 4.432 11.505 11.508 11.505h74.343c3.545 0 7.084-3.537 7.082-7.073 0 0 0 0 .002-70.807.885-6.197-4.426-11.508-11.508-11.508 0 0 0 0-35.404 0-3.537.006-7.079 3.545-7.966 7.966v26.549c.881 4.43 4.423 7.972 7.969 7.966 0 0 0 0 19.465.003 7.081-.003 12.395 5.311 12.392 12.389 0 0 0 0 .003 7.079-.003 7.079-5.316 12.392-12.392 12.389 0 0 0 0-38.058-.887-7.081.003-11.511-4.426-11.508-11.508 0 0 0 0-.884-73.459.884-6.197 6.194-11.505 11.508-11.508 0 0 0 0 58.415.006 5.313-.003 8.855-3.542 7.966-7.966 0 0 0 0 .002-26.555-.002-5.311-3.542-8.847-7.965-7.966 0 0 0 0-73.459-.881-6.197.884-11.51 6.195-11.508 11.505-.001-.001-.001-.001-.003 132.761z"/><path d="m505.852 391.903c-.884 6.198 4.427 11.507 11.505 11.502 0 0 0 0 15.934.005 5.313-.005 10.621-5.31 11.508-11.507 0 0 0 0 0-19.471-.884-6.195-11.505-11.508-11.505-11.508-7.082.003-12.395-5.31-12.392-12.392 0 0 0 0-.002-10.618.002-5.313 3.542-8.85 7.968-7.971h46.029c2.658-.885 5.313 1.773 7.084 3.542 0 0 0 0 12.386 19.471v1.765c.003 3.545-2.652 6.198-6.195 6.198 0 0 0 0-23.013 0-5.311-.003-10.624 5.308-11.508 11.508 0 0 0 0 .003 19.465.881 6.2 6.192 11.508 11.505 11.508h37.173c7.076 0 12.386-5.311 11.5-11.5 0 0 0 0-.003-30.091 0-3.54.005-7.084-.882-9.74-64.62-98.24-65.502-99.125-65.502-99.125-2.652-2.652-5.31-5.308-9.733-4.423 0 0 0 0-20.355-.884-6.195.882-11.508 6.192-12.392 12.393 0-.001 0-.001.887 131.873zm23.013-127.456s0 0 2.655-.887c2.658.884 5.313 1.763 7.084 3.537 0 0 0 0 24.781 38.947 0 0 .887.887.881 2.655-.887 2.655-3.536 5.302-6.194 6.195 0 0 0 0-25.668-.884-7.076-.003-11.502-4.429-11.505-11.505 0 0 0 0 .002-30.097-.005-5.306 3.54-8.851 7.964-7.961z"/><path d="m652.775 360.032c-6.188.878-11.502 6.192-12.389 12.389 0 0 0 0 .003 19.468.884 6.197 6.197 11.511 11.508 11.505 0 0 0 0 46.015.006 7.09.006 12.4-5.308 11.505-11.511 0 0 0 0 0-19.474.884-6.191-4.427-11.505-11.505-11.502 0 0 0 0-3.537-.006-5.316 0-10.627-5.311-11.505-11.508 0 0 0 0 0-93.808.006-3.542-7.079-7.079-7.079-7.079-4.432-.884-7.968 2.655-7.968 7.966v92.048c0 7.076-5.311 12.387-12.39 12.39.001 0 .001 0-2.658-.884z"/><path d="m806.79 264.444c4.421-.89 7.957-4.429 7.968-7.968.885-4.427-2.652-7.963-7.968-7.966 0 0 0 0-58.415.003-6.194.884-12.389 5.311-11.511 11.508 0 0 0 0 .006 58.409-.884 6.197 5.311 10.624 11.511 11.505h26.547c7.072 0 12.389 5.316 11.505 11.508 0 0 0 0 .884 34.521-.006 7.079-5.311 12.389-12.389 12.392 0 0 0 0-30.095-.003-4.427-.881-7.963 2.658-7.969 7.968-.006 3.537 3.536 7.079 7.085 7.085h74.34c6.194.878 10.627-5.319 11.517-11.505 0 0 0 0 0-65.499 0-7.082-5.311-12.389-11.499-11.505 0 0 0 0-54.885.003-6.188-.881-11.505-6.197-11.505-11.508 0 0 0 0 0-28.32 0-5.313 5.311-10.624 11.505-11.508 0-.001 0-.001 43.368.88z"/><path d="m916.529 360.034c-6.194.885-11.505 6.198-12.395 12.393 0 0 0 0 .006 19.468.878 6.194 6.194 11.505 12.389 12.395 0 0 0 0 36.283-.89 7.084 0 12.395-5.311 11.511-11.497 0 0 0 0 .884-30.976-.89-2.655-.884-6.195-1.773-8.853-64.609-98.243-65.488-99.127-65.488-99.127-1.773-3.542-5.311-5.308-9.736-4.423 0 0 0 0-20.357-.89-6.195.89-11.505 6.198-11.505 11.508v132.764c0 7.073 5.31 12.383 11.499 11.5h15.938c6.188.884 11.504-4.433 11.504-11.508 0 0 0 0 0-19.471 0-7.076-11.51-11.508-11.51-11.508-7.073.002-12.39-5.308-11.5-11.502 0 0 0 0 0-12.389-.011-3.542 3.537-7.087 7.079-7.079 0 0 0 0 46.02-.005 3.542 0 5.316 1.771 7.085 3.542 0 0 0 0 12.395 19.471 0 0 .879.884.879 2.649-.885 2.658-3.543 5.313-5.311 5.313-.002 0-.002 0-23.897-.885zm-7.084-46.031s0 0-26.553-.003c-5.311.003-10.621-5.308-11.499-11.505 0 0 0 0 .878-30.976-.884-4.426 2.658-7.966 7.969-7.966 0 0 0 0 2.652.887 2.658-.881 4.427.887 6.2 2.658 0 0 0 0 24.784 38.944.885.887.885.887.885 2.649-.005 3.544-2.657 6.199-5.316 5.312z"/><path d="m1117.447 424.641c-24.783-8.857-36.289-34.521-41.605-48.681-1.768-3.539-5.315-3.542-7.084.003-4.42 15.05-15.047 39.825-38.941 51.33-1.773 1.774-1.768 5.311.885 6.201 23.899 9.736 36.289 34.521 41.594 50.44.895 2.657 5.311 1.773 6.199-.879 4.428-15.047 15.932-40.715 39.832-52.22 1.767-1.768.889-4.432-.88-6.194z"/><path d="m251.835 267.099c-2.652.887-2.652 4.42.003 5.308 24.781 8.85 38.941 33.636 45.139 46.907 1.774 3.54 5.313 3.545 6.194.887 3.542-15.934 13.276-41.602 36.295-55.765 2.649-.882 1.769-3.537-.89-4.421-24.778-8.855-38.058-32.75-44.258-47.797-.875-2.652-5.302-1.763-6.191.887-3.542 15.934-13.282 41.608-36.292 53.994z"/></g></svg>