<svg enable-background="new 0 0 600 600" height="600" viewBox="0 0 600 600" width="600" xmlns="http://www.w3.org/2000/svg"><g fill="#fff"><path d="m483.423 101.281c-4.938 0-9.707.722-14.225 2.043-2.806-8.461-7.373-18.718-14.458-29.473-13.215-20.069-39.115-47.374-87.463-63.499-69.569-23.204-122.315-3.053-154.31 17.939-23.523 15.436-39.371 33.529-47.229 43.725h-8.414c-11.151 0-20.193 9.043-20.193 20.194v74.493c0 5.851 2.503 11.104 6.48 14.794-2.17 9.337-3.346 19.048-3.346 29.036 0 6.206.467 12.301 1.319 18.274l-49.741 49.753c-3.786 3.785-5.915 8.923-5.915 14.278v15.54c-12.915 26.707-20.182 56.638-20.182 88.246-.002 112.142 91.171 203.376 203.238 203.376 112.066 0 203.236-91.234 203.236-203.376 0-36.814-9.849-71.357-27.019-101.172.822-2.471 1.597-4.968 2.317-7.489 2.017-7.052.049-14.64-5.135-19.828l-45.283-45.291c.386-4.054.602-8.157.602-12.311 0-9.992-1.163-19.713-3.333-29.055 3.966-3.687 6.463-8.936 6.463-14.775v-63.586c5.586 1.052 10.898 3.394 15.979 7.036 11.518 8.261 17.8 20.123 17.978 20.461.447.881.956 1.713 1.514 2.505-2.378 5.879-3.699 12.293-3.699 19.012 0 28.043 22.798 50.854 50.82 50.854 28.03 0 50.832-22.813 50.832-50.854.001-28.038-22.803-50.85-50.833-50.85zm-126.11 109.252c0 48.751-39.624 88.414-88.329 88.414s-88.329-39.663-88.329-88.414c0-8.184 1.127-16.109 3.218-23.637h170.21c2.099 7.526 3.23 15.449 3.23 23.637zm3.132-98.129v34.104h-182.926v-34.104zm-5.948-63.74c11.972 3.992 22.134 8.76 30.752 13.924-10.461 1.125-21.146 4.28-31.83 9.426h-131.983c26.214-21.73 70.958-44.068 133.061-23.35zm-228.182 252.536 29.444-29.451c6.99 12.894 16.117 24.465 26.901 34.238v135.404h-56.346v-140.191zm305.518 95.424c0 89.87-73.053 162.987-162.849 162.987-58.629 0-110.105-31.18-138.788-77.83h72.658c11.151 0 20.194-9.042 20.194-20.194v-44.761c14.777 3.783 30.17 5.828 45.934 5.828 62.193 0 119.232-31.523 153.24-81.045 6.205 17.193 9.611 35.706 9.611 55.015zm-26.794-108.713c-21.063 56.091-75.438 94.354-136.055 94.354-15.932 0-31.396-2.614-45.934-7.475v-43.966c14.276 5.479 29.756 8.509 45.934 8.509 50.608 0 94.471-29.39 115.486-71.998zm78.384-125.313c-5.752 0-10.431-4.695-10.431-10.467 0-5.768 4.679-10.463 10.431-10.463 5.76 0 10.444 4.693 10.444 10.463 0 5.772-4.685 10.467-10.444 10.467z"/><path d="m268.982 425.494c-5.312 0-10.521 2.162-14.279 5.92-3.756 3.755-5.917 8.965-5.917 14.276 0 5.333 2.161 10.521 5.917 14.278 3.758 3.776 8.968 5.938 14.279 5.938s10.521-2.161 14.278-5.938c3.756-3.735 5.917-8.945 5.917-14.278 0-5.312-2.161-10.521-5.917-14.276-3.757-3.758-8.967-5.92-14.278-5.92z"/><path d="m268.982 264.305c5.311 0 10.521-2.161 14.278-5.919 3.756-3.756 5.917-8.966 5.917-14.277s-2.161-10.521-5.917-14.278c-3.758-3.758-8.968-5.917-14.278-5.917-5.312 0-10.521 2.159-14.279 5.917-3.756 3.758-5.917 8.968-5.917 14.278 0 5.312 2.161 10.521 5.917 14.277 3.758 3.758 8.97 5.919 14.279 5.919z"/><path d="m230.451 226.579c3.452 0 6.846-1.412 9.29-3.856 2.445-2.424 3.837-5.818 3.837-9.271s-1.392-6.845-3.837-9.289c-2.444-2.442-5.838-3.838-9.29-3.838-3.453 0-6.827 1.394-9.27 3.838-2.444 2.444-3.858 5.837-3.858 9.289s1.414 6.826 3.858 9.271c2.446 2.444 5.817 3.856 9.27 3.856z"/><path d="m307.495 226.579c3.453 0 6.845-1.412 9.289-3.856 2.444-2.424 3.839-5.818 3.839-9.271 0-3.473-1.395-6.845-3.839-9.289-2.442-2.442-5.834-3.838-9.289-3.838-3.452 0-6.826 1.394-9.269 3.838-2.444 2.444-3.856 5.816-3.856 9.289 0 3.452 1.414 6.847 3.856 9.271 2.443 2.444 5.815 3.856 9.269 3.856z"/></g></svg>