<?xml version="1.0" encoding="utf-8"?>
<!-- Generator: Adobe Illustrator 16.0.0, SVG Export Plug-In . SVG Version: 6.00 Build 0)  -->
<!DOCTYPE svg PUBLIC "-//W3C//DTD SVG 1.1//EN" "http://www.w3.org/Graphics/SVG/1.1/DTD/svg11.dtd">
<svg version="1.1" id="Layer_1" xmlns="http://www.w3.org/2000/svg" xmlns:xlink="http://www.w3.org/1999/xlink" x="0px" y="0px"
	 width="600px" height="600px" viewBox="0 0 600 600" enable-background="new 0 0 600 600" xml:space="preserve">
<g>
	<path fill="#FFFFFF" d="M468.903,201.933c-2.596,8.083-8.683,21.486-21.564,27.232c-1.367,0.611-1.367,2.313,0,2.925
		c12.882,5.746,18.969,19.15,21.564,27.233c0.488,1.531,2.874,1.531,3.366,0c2.596-8.083,8.686-21.487,21.563-27.233
		c1.371-0.611,1.371-2.313,0-2.925c-12.878-5.746-18.968-19.15-21.563-27.232C471.777,200.401,469.392,200.401,468.903,201.933z"/>
	<g>
		<path fill="#FFFFFF" d="M518.57,376.642c3.19-2.053,5.377-5.506,5.611-9.485c0.197-3.347-1.007-6.666-3.303-9.102
			c-0.709-0.753-1.507-1.405-2.372-1.948c3.161-2.059,5.323-5.492,5.555-9.447c0.197-3.35-1.004-6.669-3.303-9.104
			c-0.707-0.754-1.507-1.406-2.369-1.949c3.161-2.056,5.323-5.492,5.555-9.447c0.199-3.35-1.007-6.669-3.3-9.104
			c-2.299-2.436-5.536-3.833-8.883-3.833l-53.761,0.309h-11.377l0.595-26.956c0.076-9.366-7.136-16.903-16.419-17.238
			c-0.208-0.008-0.415-0.012-0.62-0.012l0,0c-8.792,0-16.244,6.866-16.97,15.63l-2.981,28.576l-58.322,0.281
			c2.921-4.449,5.045-9.117,6.232-13.938c4.089,3.076,9.07,4.845,14.251,4.976c13.425,0.426,25.037-10.675,25.411-24.059
			c0.188-6.759-2.296-13.144-7.002-17.983c-4.706-4.84-11.017-7.504-17.765-7.504c-8.708,0-16.615,4.542-21.063,11.724
			c-3.589-5.473-8.459-10.604-14.38-15.255c6.994-1.98,12.131-8.353,12.131-15.982c0-9.22-7.474-16.695-16.694-16.695
			c-3.036,0-5.848,0.874-8.299,2.292c-1.954-7.052-8.35-12.257-16.022-12.257c-4.641,0-8.833,1.898-11.858,4.954
			c-2.301-6.467-8.414-11.125-15.671-11.125c-4.958,0-9.315,2.25-12.367,5.688c-3.05-4.009-7.822-6.637-13.246-6.637
			c-0.164,0-0.321,0.026-0.483,0.03c-0.163-0.004-0.319-0.03-0.482-0.03c-5.426,0-10.197,2.628-13.247,6.637
			c-3.052-3.438-7.408-5.688-12.367-5.688c-7.257,0-13.37,4.658-15.671,11.125c-3.026-3.056-7.218-4.954-11.858-4.954
			c-7.673,0-14.07,5.205-16.022,12.257c-2.454-1.418-5.264-2.292-8.301-2.292c-9.22,0-16.695,7.475-16.695,16.695
			c0,6.646,3.918,12.317,9.545,14.993c-6.656,5.025-12.067,10.64-15.937,16.67c-4.475-7.512-12.832-12.308-21.771-12.147
			c-13.044,0.238-23.949,11.036-24.311,24.073c-0.187,6.756,2.301,13.141,7.006,17.978c4.706,4.837,11.013,7.501,17.761,7.501
			c5.654,0,11.02-1.895,15.346-5.32c1.025,4.326,2.825,8.524,5.248,12.56c-23.912,0.884-42.632,8.486-55.642,22.699
			c-22.143,24.196-19.393,58.353-19.265,59.794l5.29,4.843l428.441-0.304c3.393-0.019,6.631-1.446,8.918-3.908
			c2.282-2.468,3.456-5.809,3.221-9.166C524.01,382.087,521.785,378.659,518.57,376.642z M145.989,394.125h-31.604V327.99
			c8.182-4.984,18.548-8.596,31.604-9.99V394.125z M205.732,239.227c48.816-12.761,94.331-0.145,94.719-0.035
			c20.704,6.431,36.989,16.958,45.828,29.415l-32.134,0.715c-1.441-14.687-13.856-26.202-28.915-26.202
			c-15.468,0-28.114,12.155-28.976,27.41h-6.205c-0.862-15.255-13.508-27.41-28.974-27.41c-15.076,0-27.499,11.54-28.917,26.249
			l-32.562-0.162C168.329,256.482,184.76,245.741,205.732,239.227z M308.695,272.177c0,12.941-10.525,23.47-23.465,23.47
			s-23.468-10.528-23.468-23.47c0-12.939,10.528-23.467,23.468-23.467S308.695,259.238,308.695,272.177z M244.543,272.177
			c0,12.941-10.527,23.47-23.467,23.47s-23.468-10.528-23.468-23.47c0-12.939,10.528-23.467,23.468-23.467
			S244.543,259.238,244.543,272.177z M208.267,394.125h-31.604v-59.458c6.844,4.25,14.732,7.963,23.532,10.99l0.01-0.03
			c1.353,0.467,2.723,0.917,4.114,1.349c1.322,0.347,2.634,0.642,3.948,0.952V394.125z M270.544,394.125H238.94v-41.644
			c4.657,0.306,9.187,0.461,13.513,0.461c6.505,0,12.565-0.309,18.091-0.778V394.125z M332.82,394.125h-31.604V347.18
			c0.437-0.114,0.772-0.207,0.893-0.24c1.348-0.417,2.678-0.854,3.993-1.307l0.005,0.024c10.198-3.508,19.166-7.952,26.713-13.084
			V394.125z M349.723,306.514c-7.534,14.915-25.492,27.703-49.208,35.068c-0.453,0.131-45.903,12.758-94.661,0.019
			c-24.148-7.498-42.219-20.508-49.578-35.69l-0.021,0.011c-1.934-4.018-3.128-8.184-3.517-12.439l-4.972-1.485
			c-3.67,4.621-9.148,7.271-15.032,7.271c-5.225,0-10.109-2.063-13.754-5.809c-3.643-3.745-5.57-8.691-5.425-13.927
			c0.281-10.092,8.726-18.453,18.824-18.636c8.526-0.186,16.224,5.432,18.708,13.58l2.324,0.182v0.105l1.451,0.007l1.414,0.11
			c0.016-0.034,0.038-0.068,0.055-0.103l35.827,0.179c1.406,14.723,13.834,26.279,28.918,26.279c8.007,0,15.27-3.258,20.531-8.517
			l-1.138,4.624c-1.171,5.517,1.126,11.331,5.99,14.178c1.964,1.151,4.251,1.81,6.693,1.81c2.441,0,4.729-0.658,6.694-1.81
			c4.864-2.848,7.161-8.661,5.99-14.178l-1.138-4.623c5.261,5.259,12.522,8.516,20.531,8.516c15.098,0,27.533-11.58,28.919-26.323
			l35.488-0.79c0.027,0.052,0.061,0.102,0.085,0.154l5.143-0.363c2.643-7.788,9.944-13.021,18.169-13.021
			c5.228,0,10.11,2.063,13.758,5.812c3.642,3.748,5.568,8.694,5.421,13.927c-0.289,10.365-9.265,18.996-19.678,18.627
			c-5.436-0.137-10.581-2.599-14.118-6.759l-4.908,1.515c-0.461,4.278-1.739,8.471-3.767,12.505L349.723,306.514z M512.152,393.541
			H371.596v-74.419h43.67l3.518-33.705c0.492-5.954,5.471-10.501,11.396-10.501c0.14,0,0.279,0.002,0.418,0.008
			c6.191,0.224,11.083,5.334,11.033,11.529l-0.639,28.833c0,0,0.71,30.158-18.239,47.521l3.777,4.122
			c16.733-15.333,19.474-38.511,19.878-47.808h11.623l53.692-0.309c0.011,0,0.024,0,0.038,0c3.781,0,6.83,3.177,6.601,7.015
			c-0.207,3.519-3.268,6.197-6.791,6.216l-41.649,0.24l0.043,7.27l41.876-0.24c0.014,0,0.025,0,0.039,0
			c3.78,0,6.829,3.175,6.603,7.015c-0.207,3.516-3.271,6.194-6.791,6.213l-41.649,0.24l0.04,7.272l41.877-0.24
			c0.014,0,0.027,0,0.038,0c3.783,0,6.829,3.174,6.603,7.015c-0.207,3.516-3.268,6.193-6.791,6.213l-41.649,0.24l0.041,7.271
			l41.649-0.24c0.014,0,0.027,0,0.041,0c3.508,0,6.575,2.635,6.821,6.137C518.984,390.298,515.952,393.52,512.152,393.541z"/>
		<polygon fill="#FFFFFF" points="125.435,274.997 135.396,279.976 125.435,284.957 127.935,289.958 142.896,282.476 
			142.896,277.475 127.935,269.996 		"/>
		<path fill="#FFFFFF" d="M280.602,263.184c-9.704,0-17.569,4.344-17.569,9.703c0,5.36,7.866,9.704,17.569,9.704
			c9.703,0,17.568-4.344,17.568-9.704C298.17,267.528,290.305,263.184,280.602,263.184z M280.639,279.976
			c-4.018,0-7.276-3.257-7.276-7.276c0-4.018,3.258-7.276,7.276-7.276s7.276,3.258,7.276,7.276
			C287.915,276.719,284.657,279.976,280.639,279.976z"/>
		<path fill="#FFFFFF" d="M207.595,272.886c0,5.36,7.867,9.704,17.569,9.704c9.704,0,17.57-4.344,17.57-9.704
			c0-5.358-7.866-9.703-17.57-9.703C215.462,263.184,207.595,267.528,207.595,272.886z M232.404,272.699
			c0,4.02-3.258,7.276-7.276,7.276s-7.276-3.257-7.276-7.276c0-4.018,3.258-7.276,7.276-7.276S232.404,268.681,232.404,272.699z"/>
		<path fill="#FFFFFF" d="M253.152,326.104c-12.77,0-23.157-8.022-23.157-17.883h-5.591c0,12.944,12.896,23.473,28.748,23.473
			c15.853,0,28.749-10.528,28.749-23.473h-5.591C276.311,318.082,265.921,326.104,253.152,326.104z"/>
		<polygon fill="#FFFFFF" points="381.897,285.287 371.669,280.175 381.897,275.062 379.397,270.061 364.168,277.674 
			364.168,282.675 379.397,290.288 		"/>
	</g>
</g>
</svg>
